<svg id="Capa_1" data-name="Capa 1" xmlns="http://www.w3.org/2000/svg" viewBox="0 0 184.25 59.53"><defs><style>.cls-1{fill:#fff;}</style></defs><polygon class="cls-1" points="38.36 18.2 39.76 18.2 39.82 16.58 38.36 16.52 38.36 18.2"/><path class="cls-1" d="M34.36,21.4V23l2.07.15V21.4Z"/><path class="cls-1" d="M38.16,16.44V15c-.78-.11-1-.21-1.73-.3v1.77Z"/><rect class="cls-1" x="34.36" y="16.86" width="1.85" height="1.85"/><rect class="cls-1" x="36.43" y="19.25" width="1.58" height="1.58"/><path class="cls-1" d="M34.09,16V14.48l-1.71-.13V16Z"/><polygon class="cls-1" points="42.34 14.31 40.84 14.17 40.84 15.67 42.34 15.67 42.34 14.31"/><polygon class="cls-1" points="41.25 18.23 39.75 18.2 39.75 19.7 41.25 19.7 41.25 18.23"/><path class="cls-1" d="M41.49,30.88a5.08,5.08,0,0,0-1.91-2.67,11.29,11.29,0,0,0-3.25-1.69c-1.2-.4-2.74-.81-4.63-1.23a21.55,21.55,0,0,1-3.36-.89.81.81,0,0,1-.53-.75.64.64,0,0,1,.47-.65,18.6,18.6,0,0,1,3.31-.15h.5V21.22h2.29V18.93H32.09V16.64H29.8V14.36h-.61q-6,0-8.9,2.23c-1.92,1.48-2.89,4.22-2.89,8.23q0,4.71,2.25,6.78t8.47,3a22.86,22.86,0,0,1,2.89.56.69.69,0,0,1,.54.65c0,.68-.78,1-2.32,1a82,82,0,0,1-11.16-1l-.44,7.87,1.73.4a46.47,46.47,0,0,0,4.83.8,46.54,46.54,0,0,0,6,.4q5.91,0,8.85-2.35T42,35.12A15.51,15.51,0,0,0,41.49,30.88ZM30,19.32h1.52v1.51H30ZM27.54,17h1.69v1.69H27.54Z"/><rect class="cls-1" x="141.55" y="20.51" width="3.14" height="2.71"/><path class="cls-1" d="M53.55,28.14l-2.44-.61a2.93,2.93,0,0,1-1.79-1.11,3.89,3.89,0,0,1-.53-2.17A5.3,5.3,0,0,1,49,22.6a1.71,1.71,0,0,1,.73-.93,3.11,3.11,0,0,1,1.16-.42,11.25,11.25,0,0,1,1.72-.1,18.57,18.57,0,0,1,3.5.33l-.21,1.16c-1.1-.06-2.11-.15-3.22-.15a10.14,10.14,0,0,0-1.11,0,2,2,0,0,0-.7.2.84.84,0,0,0-.45.54,3.35,3.35,0,0,0-.12,1,2,2,0,0,0,.34,1.33,2,2,0,0,0,1.15.6l2.39.6A3,3,0,0,1,56,27.92a3.93,3.93,0,0,1,.53,2.2,3,3,0,0,1-.88,2.58,5.58,5.58,0,0,1-3.06.62A20.06,20.06,0,0,1,49,33l.21-1.17c1.92.07,3,.16,3.49.15a3.39,3.39,0,0,0,1.88-.36c.33-.24.49-.75.49-1.54a2.08,2.08,0,0,0-.33-1.35A2.14,2.14,0,0,0,53.55,28.14Z"/><path class="cls-1" d="M59.94,24.81,60,26.13a5.24,5.24,0,0,1,3.39-1.52,1.88,1.88,0,0,1,2.1,1.47,5.1,5.1,0,0,1,3.35-1.47,2.19,2.19,0,0,1,1.64.58,2.31,2.31,0,0,1,.57,1.7v6.23H69.65V27.3a1.79,1.79,0,0,0-.31-1.11,1.22,1.22,0,0,0-1-.35,2.62,2.62,0,0,0-1.15.27,12,12,0,0,0-1.58,1v6H64.23V27.3a1.63,1.63,0,0,0-.32-1.12,1.27,1.27,0,0,0-1-.34,2.59,2.59,0,0,0-1.15.27,11.78,11.78,0,0,0-1.58,1v6H58.75V24.81Z"/><path class="cls-1" d="M73.74,26.06,73.61,25a25.06,25.06,0,0,1,4-.37,3.26,3.26,0,0,1,2.15.6,2.64,2.64,0,0,1,.69,2.06v5.85H79.32l-.17-1.36a5.72,5.72,0,0,1-1.49,1.05,4.11,4.11,0,0,1-1.94.46,2.62,2.62,0,0,1-1.81-.6A2.21,2.21,0,0,1,73.23,31v-.9a1.9,1.9,0,0,1,.61-1.51A2.45,2.45,0,0,1,75.53,28H79v-.73a1.44,1.44,0,0,0-.36-1.11,2,2,0,0,0-1.33-.32C76.49,25.84,75.3,25.91,73.74,26.06Zm1,4.2v.52a1.3,1.3,0,0,0,.3.95,1.41,1.41,0,0,0,1,.3,3.77,3.77,0,0,0,1.47-.31A5.09,5.09,0,0,0,79,30.78V29.11H75.79a1.08,1.08,0,0,0-.83.31A1.28,1.28,0,0,0,74.72,30.26Z"/><path class="cls-1" d="M88.26,24.61,88.09,26h-.48a3.88,3.88,0,0,0-1.3.25,18.65,18.65,0,0,0-1.8.81v6.09H83.06V24.81h1.13l.15,1.32a5.88,5.88,0,0,1,3.55-1.52Z"/><path class="cls-1" d="M92,26v4.87a1.19,1.19,0,0,0,.26.86,1.21,1.21,0,0,0,.87.25h1.26l.17,1.11a6.88,6.88,0,0,1-1.88.22,2.08,2.08,0,0,1-1.58-.57A2.35,2.35,0,0,1,90.53,31V26H89V24.9l1.5-.07V22.36H92v2.45h2.64V26Z"/><path class="cls-1" d="M106.34,23.79h-4.16c-.55,0-.82.24-.82.73v1.66h4.35V28.4h-4.35v4.72h-3.2V23.86A2.4,2.4,0,0,1,98.9,22a2.78,2.78,0,0,1,2-.7,53.74,53.74,0,0,1,5.63.2Z"/><path class="cls-1" d="M108.1,26.84l-.27-2a24.42,24.42,0,0,1,4.64-.43,4.06,4.06,0,0,1,2.66.74,3.25,3.25,0,0,1,.87,2.57v5.41h-2.46l-.29-1.24a3.8,3.8,0,0,1-3,1.46,3.13,3.13,0,0,1-2-.64,2.13,2.13,0,0,1-.81-1.78v-.85a1.92,1.92,0,0,1,.73-1.59,3.05,3.05,0,0,1,2-.58h2.82v-.21a1,1,0,0,0-.26-.75,1.47,1.47,0,0,0-.92-.22Q110.08,26.72,108.1,26.84Zm2.32,3.35v.28c0,.46.28.68.84.68a3.15,3.15,0,0,0,1.65-.57V29.52h-1.77C110.66,29.53,110.42,29.75,110.42,30.19Z"/><path class="cls-1" d="M124.63,24.4l-.27,2.85h-.82a10.59,10.59,0,0,0-2.34.36v5.51h-3.1V24.64h2.42l.27,1.25a5.08,5.08,0,0,1,3.38-1.49Z"/><path class="cls-1" d="M128.47,24.64l.25,1.25a4.41,4.41,0,0,1,3.13-1.49A2,2,0,0,1,134,25.72,4.21,4.21,0,0,1,137,24.4a2.12,2.12,0,0,1,2.41,2.37v6.35H136.3V27.74a.77.77,0,0,0-.16-.55.76.76,0,0,0-.54-.16,3.33,3.33,0,0,0-1.4.44v5.65h-3V27.74a.77.77,0,0,0-.17-.55.84.84,0,0,0-.55-.16,3.1,3.1,0,0,0-1.38.41v5.68H126V24.64Z"/><rect class="cls-1" x="141.57" y="24.64" width="3.09" height="8.48"/><path class="cls-1" d="M149.37,24.64l.25,1.25a5.45,5.45,0,0,1,3.55-1.49A2.52,2.52,0,0,1,155,25a2.35,2.35,0,0,1,.61,1.76v6.35h-3.1V27.74a.82.82,0,0,0-.15-.56.79.79,0,0,0-.55-.15,5.1,5.1,0,0,0-1.82.44v5.65h-3.11V24.64Z"/><path class="cls-1" d="M166.7,25.87l-1,.14a3.42,3.42,0,0,1,.16,1.09,2.31,2.31,0,0,1-.93,2.09,6.35,6.35,0,0,1-3.25.6,13,13,0,0,1-1.37-.06.48.48,0,0,0-.06.53.59.59,0,0,0,.56.35l3.09.28a3,3,0,0,1,2,.74,2.52,2.52,0,0,1,.61,1.85,2.32,2.32,0,0,1-1,2.25,8.52,8.52,0,0,1-3.68.56,12.75,12.75,0,0,1-2.91-.25,2.53,2.53,0,0,1-1.39-.76,2.42,2.42,0,0,1-.37-1.46,1.8,1.8,0,0,1,.3-1.07,2.49,2.49,0,0,1,1-.74,1.54,1.54,0,0,1-.44-1.43,1.58,1.58,0,0,1,.83-1.18,2.24,2.24,0,0,1-1.36-2.29,2.29,2.29,0,0,1,.94-2.09,6.38,6.38,0,0,1,3.29-.62,9.42,9.42,0,0,1,2.33.24h2.8Zm-4.46,6.93-1.79-.16a.92.92,0,0,0-.41.74.56.56,0,0,0,.34.59,4.41,4.41,0,0,0,1.39.14,5,5,0,0,0,1.46-.13.52.52,0,0,0,.36-.54.44.44,0,0,0-.27-.46A3.84,3.84,0,0,0,162.24,32.8ZM161.7,28a2,2,0,0,0,1-.18.83.83,0,0,0,.27-.72.79.79,0,0,0-.27-.71,2,2,0,0,0-1-.18,2.14,2.14,0,0,0-1,.18.77.77,0,0,0-.28.71.81.81,0,0,0,.28.72A2.14,2.14,0,0,0,161.7,28Z"/><path class="cls-1" d="M50.77,40.59v-.44H52v2.16a7.18,7.18,0,0,1-1.43.16,1.48,1.48,0,0,1-1.33-.56,3,3,0,0,1-.37-1.7,3.1,3.1,0,0,1,.37-1.71,1.46,1.46,0,0,1,1.32-.56,6.58,6.58,0,0,1,1.22.13l.22,0,0,.41a7.38,7.38,0,0,0-1.37-.14,1.06,1.06,0,0,0-1,.42,3.93,3.93,0,0,0,0,2.81,1,1,0,0,0,1,.42,5.57,5.57,0,0,0,.9-.08V40.59Z"/><path class="cls-1" d="M50.56,42.53A1.55,1.55,0,0,1,49.17,42a3.23,3.23,0,0,1-.38-1.74,3.25,3.25,0,0,1,.38-1.75,1.53,1.53,0,0,1,1.38-.58,6.65,6.65,0,0,1,1.23.12l.28,0,0,.54H52a8.12,8.12,0,0,0-1.36-.13,1,1,0,0,0-.92.39,2.72,2.72,0,0,0-.25,1.37,2.72,2.72,0,0,0,.25,1.37,1,1,0,0,0,.92.39,5,5,0,0,0,.84-.08V40.66h-.73v-.57h1.34v2.28h0A8,8,0,0,1,50.56,42.53Zm0-4.52a1.43,1.43,0,0,0-1.27.53,3,3,0,0,0-.36,1.67,3,3,0,0,0,.36,1.66,1.45,1.45,0,0,0,1.28.53,7.94,7.94,0,0,0,1.36-.14v-2H50.84v.31h.73V42h0a5,5,0,0,1-.92.09,1.12,1.12,0,0,1-1-.45,2.88,2.88,0,0,1-.27-1.44,2.86,2.86,0,0,1,.27-1.44,1.12,1.12,0,0,1,1-.46,8.38,8.38,0,0,1,1.3.13l0-.28-.16,0A5.8,5.8,0,0,0,50.55,38Z"/><path class="cls-1" d="M53.51,42.4,54.72,38h1.07L57,42.4h-.48l-.32-1.13H54.31L54,42.4Zm1.58-4-.67,2.41h1.67l-.67-2.41Z"/><path class="cls-1" d="M57.08,42.47h-.62l-.32-1.13H54.36L54,42.47h-.62l0-.09,1.22-4.44h1.17Zm-.52-.13h.35l-1.17-4.27h-1L53.6,42.34h.34l.32-1.14h2Zm-.39-1.44H54.33L55,38.36h.43v0Zm-1.66-.13H56l-.63-2.28h-.23Z"/><path class="cls-1" d="M58.64,42.4V38h.92l1.68,4h.13V38h.49v4.4H61l-1.71-4h-.12v4Z"/><path class="cls-1" d="M61.92,42.47h-1l0,0L59.21,38.5h0v4h-.63V37.94h1l0,0,1.66,3.92h0v-4h.62ZM61,42.34h.79V38.07h-.35v4h-.25v0l-1.67-3.93h-.8v4.27h.35v-4h.23l0,0Z"/><path class="cls-1" d="M63.5,42.4,64.71,38h1.06L67,42.4H66.5l-.32-1.13H64.3L64,42.4Zm1.58-4-.67,2.41h1.66l-.66-2.41Z"/><path class="cls-1" d="M67.07,42.47h-.62l-.32-1.13H64.35L64,42.47h-.62l0-.09,1.22-4.44h1.17Zm-.52-.13h.34l-1.17-4.27h-1l-1.17,4.27h.34l.32-1.14h2Zm-.39-1.44H64.32L65,38.36h.43v0Zm-1.66-.13H66l-.63-2.28h-.23Z"/><path class="cls-1" d="M70.2,42.4H68.63V38H70.2a1.38,1.38,0,0,1,1.42.86,3.27,3.27,0,0,1,.2,1.28c0,1.11-.27,1.8-.82,2.09A1.66,1.66,0,0,1,70.2,42.4Zm1.12-2.26c0-.84-.19-1.37-.56-1.57a1.1,1.1,0,0,0-.56-.13H69.12V42H70.2C71,42,71.32,41.36,71.32,40.14Z"/><path class="cls-1" d="M70.2,42.47H68.56V37.94H70.2a1.44,1.44,0,0,1,1.48.89,3.42,3.42,0,0,1,.21,1.31c0,1.13-.29,1.85-.86,2.15A1.78,1.78,0,0,1,70.2,42.47Zm-1.51-.13H70.2a1.65,1.65,0,0,0,.77-.17c.52-.27.79-1,.79-2a3.39,3.39,0,0,0-.2-1.26,1.32,1.32,0,0,0-1.36-.81H68.69ZM70.2,42H69.05V38.37H70.2a1.2,1.2,0,0,1,.59.14c.4.21.6.76.6,1.63C71.39,41.4,71,42,70.2,42Zm-1-.14h1c.71,0,1.06-.57,1.06-1.76,0-.81-.18-1.32-.53-1.52a1.09,1.09,0,0,0-.53-.12h-1Z"/><path class="cls-1" d="M73.68,42.4V38h2.67v.44H74.17V40H76v.42h-1.8V42h2.18v.43Z"/><path class="cls-1" d="M76.42,42.47H73.61V37.94h2.81v.56H74.24v1.39H76v.56h-1.8V41.9h2.18Zm-2.67-.13h2.54V42H74.1V40.31h1.81V40H74.1V38.37h2.19v-.3H73.75Z"/><path class="cls-1" d="M78.64,40.72V42.4h-.49V38h1.62a1.47,1.47,0,0,1,1,.33,1.28,1.28,0,0,1,.36,1,1.18,1.18,0,0,1-.81,1.28l.84,1.78h-.54l-.79-1.68Zm1.14-.43c.6,0,.89-.31.89-.93a.81.81,0,0,0-.9-.92H78.64v1.85Z"/><path class="cls-1" d="M81.32,42.47h-.69l-.79-1.68H78.7v1.68h-.62V37.94h1.69a1.58,1.58,0,0,1,1.1.34,1.38,1.38,0,0,1,.37,1.06,1.26,1.26,0,0,1-.78,1.32Zm-.6-.13h.39l-.83-1.76.07,0a1.11,1.11,0,0,0,.76-1.21,1.24,1.24,0,0,0-.33-1,1.42,1.42,0,0,0-1-.31H78.21v4.27h.36V40.65h1.35Zm-.94-2H78.57v-2h1.2a.87.87,0,0,1,1,1C80.74,40,80.42,40.36,79.78,40.36Zm-1.08-.14h1.08c.56,0,.83-.28.83-.86s-.27-.86-.84-.86H78.7Z"/><path class="cls-1" d="M82.56,37.12l1.37-.63.16.42-1.39.55ZM83,42.4V38h.49v4.4Z"/><path class="cls-1" d="M83.57,42.47H83V37.94h.62Zm-.49-.13h.36V38.07h-.36Zm-.41-4.79-.2-.46L84,36.4l.22.54Zm0-.39.1.21,1.27-.5-.12-.29Z"/><path class="cls-1" d="M85.14,42.4,86.35,38h1.06l1.21,4.4h-.48l-.32-1.13H85.94l-.32,1.13Zm1.58-4-.67,2.41h1.66l-.66-2.41Z"/><path class="cls-1" d="M88.71,42.47h-.62l-.32-1.13H86l-.31,1.13h-.63l0-.09,1.22-4.44h1.17Zm-.52-.13h.35l-1.17-4.27h-1l-1.17,4.27h.34l.32-1.14h2ZM87.8,40.9H86l.71-2.54h.43v0Zm-1.66-.13h1.49L87,38.49h-.23Z"/><path class="cls-1" d="M92.62,42.4V38h.49v4.4Z"/><path class="cls-1" d="M93.18,42.47h-.63V37.94h.63Zm-.49-.13H93V38.07h-.35Z"/><path class="cls-1" d="M95.13,42.4V38h.92l1.68,4h.14V38h.48v4.4h-.9l-1.71-4h-.12v4Z"/><path class="cls-1" d="M98.42,42.47h-1l0,0L95.7,38.5h0v4h-.62V37.94h1l0,0,1.67,3.92h0v-4h.62Zm-.92-.13h.78V38.07h-.35v4h-.24l0,0L96,38.07h-.8v4.27h.36v-4h.23l0,0Z"/><path class="cls-1" d="M99.93,38.44V38h3.17v.44h-1.34v4h-.48v-4Z"/><path class="cls-1" d="M101.83,42.47h-.62v-4H99.86v-.57h3.31v.57h-1.34Zm-.49-.13h.35v-4H103v-.31h-3v.31h1.35Z"/><path class="cls-1" d="M104.68,42.4V38h2.67v.44h-2.18V40H107v.42h-1.8V42h2.18v.43Z"/><path class="cls-1" d="M107.42,42.47h-2.81V37.94h2.81v.56h-2.19v1.39H107v.56h-1.81V41.9h2.19Zm-2.68-.13h2.55V42H105.1V40.31h1.81V40H105.1V38.37h2.19v-.3h-2.55Z"/><path class="cls-1" d="M111.57,42.4h-2.42V38h.48v4h1.94Z"/><path class="cls-1" d="M111.63,42.47h-2.55V37.94h.62v4h1.93Zm-2.42-.13h2.29V42h-1.93v-4h-.36Z"/><path class="cls-1" d="M113.14,42.4V38h.49v4.4Z"/><path class="cls-1" d="M113.7,42.47h-.62V37.94h.62Zm-.49-.13h.35V38.07h-.35Z"/><path class="cls-1" d="M117.4,40.59v-.44h1.21v2.16a7.1,7.1,0,0,1-1.43.16,1.49,1.49,0,0,1-1.33-.56,3,3,0,0,1-.37-1.7,3.1,3.1,0,0,1,.37-1.71,1.48,1.48,0,0,1,1.32-.56,6.78,6.78,0,0,1,1.23.13l.21,0,0,.41a7.29,7.29,0,0,0-1.36-.14,1.06,1.06,0,0,0-1,.42,2.88,2.88,0,0,0-.25,1.41,2.86,2.86,0,0,0,.25,1.4,1.06,1.06,0,0,0,1,.42,5.69,5.69,0,0,0,.91-.08V40.59Z"/><path class="cls-1" d="M117.18,42.53A1.53,1.53,0,0,1,115.8,42a3.13,3.13,0,0,1-.39-1.74,3.15,3.15,0,0,1,.39-1.75,1.53,1.53,0,0,1,1.37-.58,6.75,6.75,0,0,1,1.24.12l.27,0,0,.54h-.08a8,8,0,0,0-1.35-.13,1,1,0,0,0-.93.39,3.88,3.88,0,0,0,0,2.74,1,1,0,0,0,.92.39,5,5,0,0,0,.84-.08V40.66h-.73v-.57h1.35v2.28h-.06A7.92,7.92,0,0,1,117.18,42.53Zm0-4.52a1.41,1.41,0,0,0-1.26.53,3,3,0,0,0-.36,1.67,3,3,0,0,0,.36,1.66,1.42,1.42,0,0,0,1.27.53,7.85,7.85,0,0,0,1.36-.14v-2h-1.08v.31h.74V42h-.06a4.86,4.86,0,0,1-.92.09,1.14,1.14,0,0,1-1-.45,3,3,0,0,1-.26-1.44,3,3,0,0,1,.26-1.44,1.15,1.15,0,0,1,1-.46,8.49,8.49,0,0,1,1.3.13v-.28l-.16,0A5.67,5.67,0,0,0,117.17,38Z"/><path class="cls-1" d="M120.52,42.4V38h2.68v.44H121V40h1.81v.42H121V42h2.19v.43Z"/><path class="cls-1" d="M123.27,42.47h-2.81V37.94h2.81v.56h-2.19v1.39h1.81v.56h-1.81V41.9h2.19Zm-2.68-.13h2.54V42H121V40.31h1.8V40H121V38.37h2.18v-.3h-2.54Z"/><path class="cls-1" d="M125,42.4V38h.92l1.68,4h.13V38h.49v4.4h-.9l-1.71-4h-.12v4Z"/><path class="cls-1" d="M128.27,42.47h-1l0,0-1.69-3.93h0v4h-.63V37.94h1l0,0,1.66,3.92h0v-4h.61Zm-.92-.13h.79V38.07h-.35v4h-.25v0l-1.67-3.93h-.8v4.27h.35v-4h.23l0,0Z"/><path class="cls-1" d="M129.78,38.44V38H133v.44h-1.34v4h-.48v-4Z"/><path class="cls-1" d="M131.69,42.47h-.62v-4h-1.35v-.57H133v.57h-1.34Zm-.49-.13h.35v-4h1.34v-.31h-3v.31h1.35Z"/><path class="cls-1" d="M134.53,42.4V38h2.68v.44H135V40h1.8v.42H135V42h2.18v.43Z"/><path class="cls-1" d="M137.28,42.47h-2.81V37.94h2.81v.56h-2.19v1.39h1.81v.56h-1.81V41.9h2.19Zm-2.68-.13h2.54V42H135V40.31h1.8V40H135V38.37h2.18v-.3H134.6Z"/></svg>