<svg id="Capa_1" data-name="Capa 1" xmlns="http://www.w3.org/2000/svg" viewBox="0 0 184.25 59.53"><defs><style>.cls-1{fill:#fff;}</style></defs><path class="cls-1" d="M22.89,31.63C24.77,32.8,27,34,27,37c0,3.77-2.72,5.43-6.76,5.43a15.82,15.82,0,0,1-4.82-.72v-3A13.73,13.73,0,0,0,20,39.74c1.63,0,3.66-.45,3.66-2.31,0-1.35-1.66-2.1-2.86-2.9L19,33.47c-1.62-1-3.58-2.22-3.58-4.86,0-3.25,2.64-5,6.37-5a18.88,18.88,0,0,1,4.08.64v3.06a9.72,9.72,0,0,0-4.12-1.06c-1.47,0-2.94.79-2.94,1.92s1.43,1.93,2.6,2.65Z"/><path class="cls-1" d="M28.58,33c0-5.73,2.53-9.39,8-9.39s7.93,3.66,7.93,9.39-2.53,9.4-7.93,9.4S28.58,38.64,28.58,33Zm8,6.76c3.66,0,4.15-3.89,4.15-6.76s-.49-6.75-4.15-6.75S32.36,30.08,32.36,33,32.81,39.74,36.54,39.74Z"/><path class="cls-1" d="M48.16,16.87h3.4V42h-3.4Z"/><path class="cls-1" d="M67,38.12H67a6,6,0,0,1-5.69,4.26c-4.15,0-4.83-3.7-4.83-5.92V24h3.39v9.81c0,3.35,0,5.17,2.45,5.17,2.8,0,4.76-3.78,4.76-7.36V24h3.39V42H67Z"/><path class="cls-1" d="M87.7,41.7a16.27,16.27,0,0,1-5,.68c-6.86,0-8.79-5.59-8.79-10,0-5,2.3-8.75,7.66-8.75,5.1,0,6.42,3.32,6.42,6.27H84.12c0-1.36-.26-3.63-2.75-3.63-2.23,0-3.66,2.15-3.66,5.47,0,3.55,1.47,8,7.13,8a9.55,9.55,0,0,0,2.86-.38Z"/><rect class="cls-1" x="90.76" y="16.89" width="3.4" height="3.85"/><rect class="cls-1" x="90.76" y="24.01" width="3.4" height="17.96"/><path class="cls-1" d="M97.93,33c0-5.73,2.53-9.39,8-9.39s7.92,3.66,7.92,9.39-2.53,9.4-7.92,9.4S97.93,38.64,97.93,33Zm8,6.76c3.66,0,4.15-3.89,4.15-6.76s-.49-6.75-4.15-6.75S101.7,30.08,101.7,33,102.15,39.74,105.89,39.74Z"/><path class="cls-1" d="M117.13,24h3.4v3.84h.07c.61-1.51,2-4.26,5.7-4.26,4.15,0,4.83,3.7,4.83,5.92V42h-3.4v-9.8c0-3.32,0-5.17-2.45-5.17-2.79,0-4.75,3.77-4.75,7.35V42h-3.4Z"/><path class="cls-1" d="M147.88,41.78a17.43,17.43,0,0,1-4.49.6c-5.43,0-8.91-3.21-8.91-10.26,0-7.7,5-8.53,7.32-8.53,4.38,0,6.49,3,6.49,7.21v.86H137.88c0,3.36,1.7,8.08,6.6,8.08a9.65,9.65,0,0,0,3.4-.65Zm-3-12.38a3.08,3.08,0,0,0-3.28-3.17A3.45,3.45,0,0,0,138,29.4Z"/><path class="cls-1" d="M157.61,31.63c1.89,1.17,4.15,2.34,4.15,5.32,0,3.77-2.71,5.43-6.75,5.43a15.84,15.84,0,0,1-4.83-.72v-3a13.74,13.74,0,0,0,4.53,1.06c1.62,0,3.66-.45,3.66-2.31,0-1.35-1.66-2.1-2.87-2.9l-1.74-1.06c-1.62-1-3.58-2.22-3.58-4.86,0-3.25,2.64-5,6.37-5a18.77,18.77,0,0,1,4.08.64v3.06a9.71,9.71,0,0,0-4.11-1.06c-1.48,0-3,.79-3,1.92s1.44,1.93,2.61,2.65Z"/></svg>