<svg id="Capa_1" data-name="Capa 1" xmlns="http://www.w3.org/2000/svg" viewBox="0 0 184.25 59.53"><defs><style>.cls-1{fill:#fff;}</style></defs><path class="cls-1" d="M167.16,25.52h-10A1.59,1.59,0,0,0,156,26a1.56,1.56,0,0,0,0,2.22,1.59,1.59,0,0,0,1.2.46h10v3.77h-10a1.59,1.59,0,0,0-1.14.47,1.64,1.64,0,0,0,0,2.32,1.62,1.62,0,0,0,1.17.47h10v3.77h-9.5a8,8,0,0,1-2.88-.46,5.34,5.34,0,0,1-1.91-1.23,4.68,4.68,0,0,1-1.07-1.73,5.92,5.92,0,0,1-.34-2,5.48,5.48,0,0,1,.11-1,3.63,3.63,0,0,1,.34-1,3.38,3.38,0,0,1,.64-.86,2.52,2.52,0,0,1,1-.57A2.93,2.93,0,0,1,151.93,29a6,6,0,0,1-.44-2.38,4.38,4.38,0,0,1,1.6-3.62,7.17,7.17,0,0,1,4.57-1.28h9.5Z"/><path class="cls-1" d="M28.32,25.79H18.43a1.58,1.58,0,0,0-1.14.46,1.52,1.52,0,0,0,0,2.18,1.6,1.6,0,0,0,1.19.45h9.86v3.69H18.43a1.62,1.62,0,0,0-1.14.46,1.58,1.58,0,0,0-.47,1.15,1.55,1.55,0,0,0,.47,1.13,1.61,1.61,0,0,0,1.17.46h9.86v3.7h-9.4A8,8,0,0,1,16.06,39a5.29,5.29,0,0,1-1.89-1.2,4.66,4.66,0,0,1-1.06-1.71,5.87,5.87,0,0,1-.33-2,5.33,5.33,0,0,1,.1-1,4,4,0,0,1,.34-1,3.69,3.69,0,0,1,.63-.84,2.54,2.54,0,0,1,1-.56,2.84,2.84,0,0,1-1.57-1.49,5.78,5.78,0,0,1-.43-2.34,4.28,4.28,0,0,1,1.57-3.55,7.22,7.22,0,0,1,4.54-1.25h9.4Z"/><path class="cls-1" d="M102,35.23v4.43H98V30.82a9.11,9.11,0,0,1,2.31-6.23,7.22,7.22,0,0,1,11.11,0,9.11,9.11,0,0,1,2.31,6.23v8.84h-3.89V35.23Zm7.89-4.41a4.81,4.81,0,0,0-1.2-3.11,3.49,3.49,0,0,0-2.75-1.31,3.55,3.55,0,0,0-2.8,1.31A4.56,4.56,0,0,0,102,30.82Z"/><path class="cls-1" d="M127.84,32.75c.56.66,1.09,1.28,1.61,1.87s.91,1,1.17,1.24a2.26,2.26,0,0,1,.56,1.56,2.35,2.35,0,0,1-.56,1.58,1.74,1.74,0,0,1-1.39.66,1.82,1.82,0,0,1-1.39-.69c-.49-.5-1.26-1.36-2.33-2.58s-2.06-2.33-3-3.33H119.4v6.6h-4V22h10.84a4.51,4.51,0,0,1,3.47,1.65,5.93,5.93,0,0,1,.5,7.16,5.31,5.31,0,0,1-2.42,2m-1.55-6.35H119.4v2.18h6.89a1,1,0,0,0,.63-.28,1,1,0,0,0,.31-.78,1.12,1.12,0,0,0-.31-.78.87.87,0,0,0-.63-.34"/><path class="cls-1" d="M38.24,26.26h-4V39.6h-4V21.81h7.94a7.16,7.16,0,0,1,5.57,2.63,9.17,9.17,0,0,1,2.32,6.26v8.9H42.21V30.7A4.56,4.56,0,0,0,41,27.57a3.62,3.62,0,0,0-2.8-1.31"/><polygon class="cls-1" points="51.71 30.7 59.65 30.7 59.65 35.15 51.71 35.15 51.71 39.6 47.74 39.6 47.74 21.81 51.71 21.81 63.57 21.81 63.57 26.26 51.71 26.26 51.71 30.7"/><path class="cls-1" d="M72.18,21.81a7.15,7.15,0,0,1,5.56,2.63,9.13,9.13,0,0,1,2.32,6.26A9.1,9.1,0,0,1,77.74,37a7.31,7.31,0,0,1-11.18,0,9.1,9.1,0,0,1-2.32-6.3,9.13,9.13,0,0,1,2.32-6.26,7.21,7.21,0,0,1,5.62-2.63m0,4.45a3.57,3.57,0,0,0-2.82,1.31,4.89,4.89,0,0,0,0,6.3,3.64,3.64,0,0,0,2.82,1.28A3.7,3.7,0,0,0,75,33.87a4.83,4.83,0,0,0,0-6.3,3.63,3.63,0,0,0-2.8-1.31"/><path class="cls-1" d="M89.09,39.6A7.26,7.26,0,0,1,83.47,37a9.1,9.1,0,0,1-2.32-6.3,9.13,9.13,0,0,1,2.32-6.26,7.23,7.23,0,0,1,5.62-2.63H97v4.45H89.09a3.6,3.6,0,0,0-2.83,1.31,4.92,4.92,0,0,0,0,6.3,3.67,3.67,0,0,0,2.83,1.28H97V39.6Z"/><polygon class="cls-1" points="139.32 21.94 143.35 21.94 143.35 28.6 149.38 28.6 149.38 32.96 143.35 32.96 143.35 39.62 139.32 39.62 139.32 32.96 133.29 32.96 133.29 28.6 139.32 28.6 139.32 21.94"/><path class="cls-1" d="M161.61,14.05a2.74,2.74,0,1,1-2.73-2.74,2.73,2.73,0,0,1,2.73,2.74"/><path class="cls-1" d="M169.4,13.63a2.32,2.32,0,1,1-2.32-2.32,2.32,2.32,0,0,1,2.32,2.32"/><path class="cls-1" d="M174.14,18.68a1.58,1.58,0,1,1-1.58-1.58,1.57,1.57,0,0,1,1.58,1.58"/><path class="cls-1" d="M174.35,24.1A1.11,1.11,0,1,1,173.24,23a1.11,1.11,0,0,1,1.11,1.11"/><path class="cls-1" d="M171.68,28.45a.93.93,0,1,1-.93-.93.93.93,0,0,1,.93.93"/></svg>