<svg id="Capa_1" data-name="Capa 1" xmlns="http://www.w3.org/2000/svg" viewBox="0 0 184.25 65.2"><defs><style>.cls-1{fill:#fff;}</style></defs><path class="cls-1" d="M83.36,9.88a.9.9,0,0,1-.27.47,1.73,1.73,0,0,1-.56.35,1.3,1.3,0,0,1-.67.09,1.2,1.2,0,0,1-.6-.29,1.68,1.68,0,0,1-.43-.62l-.1-.25a1.62,1.62,0,0,1-.11-1.1,1.12,1.12,0,0,1,.69-.69,1.17,1.17,0,0,1,.79-.07,1.09,1.09,0,0,1,.59.5l-.37.16a.65.65,0,0,0-.89-.29.71.71,0,0,0-.45.49,1.32,1.32,0,0,0,.12.84l.09.23a1.33,1.33,0,0,0,.53.66.76.76,0,0,0,.69,0,1.62,1.62,0,0,0,.35-.2A.61.61,0,0,0,83,9.94l-.26-.63L82,9.58l-.12-.3,1-.42Z"/><path class="cls-1" d="M86.08,8.26l-.7.16.28,1.2-.39.09-.68-3,1-.23a1.17,1.17,0,0,1,.82,0,.8.8,0,0,1,.42.6.8.8,0,0,1,0,.51.82.82,0,0,1-.34.4l1,1.1v0l-.42.1Zm-.77-.16.6-.13a.69.69,0,0,0,.42-.26.52.52,0,0,0,.08-.44.54.54,0,0,0-.26-.38.64.64,0,0,0-.5,0l-.6.13Z"/><path class="cls-1" d="M90.89,5.83,91,7.88a1,1,0,0,1-.22.72A1.11,1.11,0,0,1,90.1,9H90a1.13,1.13,0,0,1-.81-.22A.92.92,0,0,1,88.84,8L88.7,6l.39,0L89.23,8a.73.73,0,0,0,.22.5.69.69,0,0,0,.53.14.67.67,0,0,0,.5-.21.73.73,0,0,0,.15-.52l-.14-2Z"/><path class="cls-1" d="M93.4,7.74l-.11,1.18-.39,0,.27-3,1.11.1a1.13,1.13,0,0,1,.75.32.83.83,0,0,1,.22.7.85.85,0,0,1-.33.65,1.2,1.2,0,0,1-.81.16Zm0-.33.71.07a.74.74,0,0,0,.51-.11A.57.57,0,0,0,94.86,7a.58.58,0,0,0-.13-.44.68.68,0,0,0-.45-.21l-.74-.07Z"/><path class="cls-1" d="M99.3,8.59A1.74,1.74,0,0,1,99,9.3a1.08,1.08,0,0,1-.53.38,1.25,1.25,0,0,1-1.24-.32,1.22,1.22,0,0,1-.29-.59,1.86,1.86,0,0,1,0-.77L97,7.79a1.74,1.74,0,0,1,.34-.71,1.1,1.1,0,0,1,1.2-.4,1.15,1.15,0,0,1,.58.33,1.12,1.12,0,0,1,.28.6,1.8,1.8,0,0,1-.05.79ZM99,8.3a1.39,1.39,0,0,0,0-.86A.72.72,0,0,0,98.46,7a.71.71,0,0,0-.65.13,1.33,1.33,0,0,0-.42.72l-.06.21a1.43,1.43,0,0,0,0,.85.69.69,0,0,0,.51.44.68.68,0,0,0,.65-.12,1.35,1.35,0,0,0,.41-.72Z"/><path class="cls-1" d="M91.66,2.66a30,30,0,0,1,26.26,15.57l.67-1.32A31.17,31.17,0,0,0,61.9,23.29l1.35-.11A30,30,0,0,1,91.66,2.66Z"/><path class="cls-1" d="M121.3,36.81a29.94,29.94,0,0,1-58.18,4.83l-1.27.11a31.18,31.18,0,0,0,60.71-5Z"/><path class="cls-1" d="M91.66,53.82A21.25,21.25,0,0,1,72.13,40.9l-.65.05a21.84,21.84,0,0,0,41.46-3.44l-.65.05A21.25,21.25,0,0,1,91.66,53.82Z"/><path class="cls-1" d="M91.66,10.76A21.86,21.86,0,0,0,72.34,22.42l.74-.06a21.2,21.2,0,0,1,35.21-2.92l.74-.06A21.79,21.79,0,0,0,91.66,10.76Z"/><path class="cls-1" d="M71.44,49.09l-.76-1-.79.62.89,1.11-.24.19-1.11-1.41,2.21-1.75,1.1,1.4-.24.19-.86-1.11-.72.57.76,1Z"/><path class="cls-1" d="M72.84,50.68a1.69,1.69,0,0,1-.25-.74.63.63,0,0,1,.2-.5.69.69,0,0,1,.58-.2,1.09,1.09,0,0,1,.64.34,1.24,1.24,0,0,1,.29.45.84.84,0,0,1,0,.47.76.76,0,0,1-.22.39l-.26-.26a.52.52,0,0,0,.17-.4.62.62,0,0,0-.22-.43.65.65,0,0,0-.38-.23.43.43,0,0,0-.35.13A.37.37,0,0,0,73,50a1.35,1.35,0,0,0,.2.51,2.84,2.84,0,0,1,.23.55.91.91,0,0,1,0,.4.82.82,0,0,1-.2.33.68.68,0,0,1-.58.2,1.09,1.09,0,0,1-.65-.37,1.38,1.38,0,0,1-.31-.46.94.94,0,0,1-.05-.49.72.72,0,0,1,.22-.41l.26.27a.5.5,0,0,0-.16.41.87.87,0,0,0,.25.47.77.77,0,0,0,.41.24.43.43,0,0,0,.47-.45A2,2,0,0,0,72.84,50.68Z"/><path class="cls-1" d="M74.6,52.52l-.69.86-.29-.23L75.39,51l.81.65a1.06,1.06,0,0,1,.42.64.84.84,0,0,1-.19.65.78.78,0,0,1-.6.34,1.13,1.13,0,0,1-.71-.29Zm.19-.24.52.42a.64.64,0,0,0,.45.18.54.54,0,0,0,.38-.22.59.59,0,0,0,.13-.41.65.65,0,0,0-.25-.4l-.53-.43Z"/><path class="cls-1" d="M77.72,55.2l-1-.63-.62.48-.33-.21L78.2,53l.27.18-.6,3L77.55,56ZM77,54.37l.81.52.3-1.37Z"/><path class="cls-1" d="M81.13,56.8a1.06,1.06,0,0,1-.59.49,1.15,1.15,0,0,1-.78-.1,1,1,0,0,1-.57-.67,1.46,1.46,0,0,1,.15-1l.11-.25a1.77,1.77,0,0,1,.43-.56,1.07,1.07,0,0,1,1.17-.13,1,1,0,0,1,.54.54,1.05,1.05,0,0,1,0,.76l-.33-.16a.89.89,0,0,0,0-.53.63.63,0,0,0-.35-.33.65.65,0,0,0-.62,0,1.25,1.25,0,0,0-.5.59l-.12.25a1.23,1.23,0,0,0-.14.74.62.62,0,0,0,.36.48.7.7,0,0,0,.49.08.78.78,0,0,0,.42-.35Z"/><path class="cls-1" d="M82.3,58.2,82,58.07l1-2.65.35.13Z"/><path class="cls-1" d="M86.09,57.94a1.81,1.81,0,0,1-.31.67,1.09,1.09,0,0,1-.51.35,1,1,0,0,1-.61,0,1.12,1.12,0,0,1-.54-.31,1.24,1.24,0,0,1-.27-.55,1.79,1.79,0,0,1,0-.72l0-.2a1.85,1.85,0,0,1,.32-.66,1.14,1.14,0,0,1,.51-.36,1.05,1.05,0,0,1,.61,0,1.12,1.12,0,0,1,.54.31,1.09,1.09,0,0,1,.27.56,1.9,1.9,0,0,1,0,.74Zm-.31-.27a1.21,1.21,0,0,0,0-.8.66.66,0,0,0-.48-.4.64.64,0,0,0-.6.12,1.19,1.19,0,0,0-.39.67l-.06.2a1.24,1.24,0,0,0,0,.79.65.65,0,0,0,.48.41.64.64,0,0,0,.6-.11,1.3,1.3,0,0,0,.39-.68Z"/><path class="cls-1" d="M88.07,58.32a1.7,1.7,0,0,1-.65-.43.69.69,0,0,1-.15-.52.7.7,0,0,1,.34-.51,1.07,1.07,0,0,1,.72-.12,1.15,1.15,0,0,1,.5.18.81.81,0,0,1,.37.8l-.37,0a.5.5,0,0,0-.11-.42.68.68,0,0,0-.43-.21.75.75,0,0,0-.44.06.4.4,0,0,0-.2.32.38.38,0,0,0,.1.31,1.69,1.69,0,0,0,.47.28,2.41,2.41,0,0,1,.52.29.83.83,0,0,1,.25.32A.68.68,0,0,1,89,59a.66.66,0,0,1-.34.51,1.17,1.17,0,0,1-.74.11,1.46,1.46,0,0,1-.52-.18.92.92,0,0,1-.35-.36.7.7,0,0,1-.07-.45l.37,0a.46.46,0,0,0,.13.42.77.77,0,0,0,.48.22.79.79,0,0,0,.46-.06.37.37,0,0,0,.2-.31.35.35,0,0,0-.1-.33A1.61,1.61,0,0,0,88.07,58.32Z"/><path class="cls-1" d="M92.2,58.72l0,1.1-.37,0L91.76,57l1-.05a1,1,0,0,1,.73.21.82.82,0,0,1,.29.62.8.8,0,0,1-.23.64,1.07,1.07,0,0,1-.73.25Zm0-.31.66,0a.71.71,0,0,0,.46-.16.53.53,0,0,0,.14-.42.53.53,0,0,0-.18-.39.57.57,0,0,0-.44-.14l-.69,0Z"/><path class="cls-1" d="M96.3,58.69l-1.17.18-.15.77-.38.06.65-3,.32-.05,1.49,2.64-.38.05Zm-1.1-.14,1-.14-.67-1.24Z"/><path class="cls-1" d="M98.9,57.68l-.64.18.3,1.1-.36.1-.75-2.72.9-.25a1.12,1.12,0,0,1,.77,0,.8.8,0,0,1,.41.54.77.77,0,0,1-.32.87l1,1v0l-.38.11Zm-.72-.11.55-.16a.65.65,0,0,0,.39-.25.5.5,0,0,0,0-.42.49.49,0,0,0-.26-.34.62.62,0,0,0-.47,0l-.55.15Z"/><path class="cls-1" d="M102.46,56.84l-1.09.45,0,.78-.35.15-.08-3,.3-.13,2.07,2.2-.35.15Zm-1.11.12.89-.36-.95-1Z"/><path class="cls-1" d="M105.33,52.9l.32-.2,1.07,1.69a.84.84,0,0,1,.14.67,1,1,0,0,1-.43.54.89.89,0,0,1-.66.17.82.82,0,0,1-.53-.38l.32-.2a.51.51,0,0,0,.31.24.59.59,0,0,0,.64-.41.55.55,0,0,0-.1-.42Z"/><path class="cls-1" d="M108.08,50.82l1.21,1.49a.91.91,0,0,1,.22.67,1,1,0,0,1-.35.65l-.07.06a1,1,0,0,1-.73.27.87.87,0,0,1-.65-.35l-1.21-1.5.28-.23L108,53.36a.66.66,0,0,0,.43.27.68.68,0,0,0,.48-.17.7.7,0,0,0,.27-.44.64.64,0,0,0-.17-.47l-1.21-1.49Z"/><path class="cls-1" d="M112.05,50.33a.8.8,0,0,1,0,.5,1.57,1.57,0,0,1-.35.5,1.09,1.09,0,0,1-1.16.31,1.61,1.61,0,0,1-.6-.37l-.18-.17a1.53,1.53,0,0,1-.5-.9,1.07,1.07,0,0,1,.32-.85,1.15,1.15,0,0,1,.66-.36,1,1,0,0,1,.69.21l-.26.27a.61.61,0,0,0-.86.09.64.64,0,0,0-.21.59,1.33,1.33,0,0,0,.41.67l.17.16a1.24,1.24,0,0,0,.7.37.72.72,0,0,0,.61-.23,1.43,1.43,0,0,0,.22-.3.59.59,0,0,0,.07-.29l-.46-.44-.45.47-.22-.21.71-.74Z"/><path class="cls-1" d="M113.58,47.81l-.71.95.43.65-.23.31-1.61-2.56.19-.26,2.91.83-.23.31Zm-.89.67.58-.76-1.35-.41Z"/><path class="cls-1" d="M114.72,45.27l-.33.58,1,.57-.19.32-2.45-1.41.47-.81a1.13,1.13,0,0,1,.56-.53.79.79,0,0,1,.67.1.75.75,0,0,1,.33.35.89.89,0,0,1,0,.49l1.38,0h0l-.2.35Zm-.6.42.29-.49a.72.72,0,0,0,.1-.46.5.5,0,0,0-.26-.33.5.5,0,0,0-.42-.07.7.7,0,0,0-.35.32l-.29.5Z"/><path class="cls-1" d="M66.65,29.82a.8.8,0,0,0-.62-.25h-.17a3.1,3.1,0,0,0-1.74.79A5.8,5.8,0,0,0,62.88,32a7.86,7.86,0,0,0-.7,1.95,5.77,5.77,0,0,0-.12,1.86,2.2,2.2,0,0,0,.42,1.13.74.74,0,0,0,.61.28h.14A3,3,0,0,0,65.13,36a9.25,9.25,0,0,0,1.52-2.84A5.79,5.79,0,0,0,67,30.72,1.72,1.72,0,0,0,66.65,29.82ZM66,33.24a8.39,8.39,0,0,1-1.36,2.57,2.12,2.12,0,0,1-1.25.87,1.42,1.42,0,0,1-.17-.58,4.75,4.75,0,0,1,.11-1.55,6.59,6.59,0,0,1,.61-1.71,5.12,5.12,0,0,1,1-1.35,2.17,2.17,0,0,1,1.23-.56h0a1,1,0,0,1,.08.32A4.6,4.6,0,0,1,66,33.24Z"/><path class="cls-1" d="M92.21,26.79a.74.74,0,0,0-.61-.26h-.17a3.1,3.1,0,0,0-1.74.79,5.8,5.8,0,0,0-1.24,1.61,7.86,7.86,0,0,0-.7,1.95,5.77,5.77,0,0,0-.12,1.86,2.2,2.2,0,0,0,.42,1.13.73.73,0,0,0,.61.28h.14a3,3,0,0,0,1.9-1.22,9.1,9.1,0,0,0,1.51-2.85,5.66,5.66,0,0,0,.34-2.41A1.61,1.61,0,0,0,92.21,26.79Zm-.39.32h0l0,.78h0Zm-.26,3.09a8.27,8.27,0,0,1-1.36,2.57,2.17,2.17,0,0,1-1.25.88,1.54,1.54,0,0,1-.17-.58,5.06,5.06,0,0,1,.1-1.56,7,7,0,0,1,.62-1.71,4.76,4.76,0,0,1,1-1.35,2.12,2.12,0,0,1,1.2-.56h0a1.31,1.31,0,0,1,.08.33A4.91,4.91,0,0,1,91.56,30.2Z"/><path class="cls-1" d="M90.52,41.71a5.15,5.15,0,0,0-.94,1.67,3.92,3.92,0,0,0-.12,1.44,1.66,1.66,0,0,0,.32.86,1.17,1.17,0,0,0,1.13.2c.38-.12.88-.78,1.48-2.41.44-1.19,1.33-4.13,1.31-4.18A10,10,0,0,0,90.52,41.71Zm1.78.18c-.2.64-.41,1.26-.56,1.68a5.9,5.9,0,0,1-.93,1.86h-.13a1.3,1.3,0,0,1-.07-.33,3,3,0,0,1,.1-1.06,4,4,0,0,1,.76-1.31A7.32,7.32,0,0,1,92.3,41.89Z"/><path class="cls-1" d="M114.16,23.8a.86.86,0,0,0-.34-.06h-.21a4,4,0,0,0-2,.77,5.21,5.21,0,0,0-1.34,1.54,6.53,6.53,0,0,0-.74,1.88,5.87,5.87,0,0,0-.11,1.84,2.49,2.49,0,0,0,.48,1.28.91.91,0,0,0,.74.35h.15a3.16,3.16,0,0,0,2-1.23,9.71,9.71,0,0,0,1.6-2.86,5.58,5.58,0,0,0,.35-2.39A1.33,1.33,0,0,0,114.16,23.8Zm-.38,3.6A8.68,8.68,0,0,1,112.35,30a2.28,2.28,0,0,1-1.45.91,1.66,1.66,0,0,1-.28-.81,4.84,4.84,0,0,1,.1-1.53,5.74,5.74,0,0,1,.63-1.61,4.3,4.3,0,0,1,1.1-1.26,3,3,0,0,1,1.48-.58H114a1,1,0,0,1,.09.36A4.57,4.57,0,0,1,113.78,27.4Z"/><path class="cls-1" d="M138.12,25.48a1.3,1.3,0,0,0-.69-1l-.14-.06a1.59,1.59,0,0,0-.57-.1h-.13a1.42,1.42,0,0,0-1,.65l0,.07c-.2.37-.41.73-.63,1.06a7,7,0,0,0-.66-1.12c-.23-.3-.52-.65-.91-1.09a9.21,9.21,0,0,1-1.26-1.58,10.34,10.34,0,0,0,.3-1.78v-.08l0-.17a1.32,1.32,0,0,0-.75-1l-.15-.06a1.43,1.43,0,0,0-.62-.06,1.47,1.47,0,0,0-.84.4,3,3,0,0,0-.93,2.48,4.36,4.36,0,0,0,.11.52c-.26.86-.56,1.7-.88,2.52l-.38.92-.07.11-.06.14a2.48,2.48,0,0,1-.13.35.64.64,0,0,1-.06.14l-.07.19a.36.36,0,0,0,0,.11c-.08.17-.15.33-.24.51a6.47,6.47,0,0,1-.79,1.19,1.71,1.71,0,0,1-.33.29,8.35,8.35,0,0,1,.53-2.35,29,29,0,0,1,1.6-3.84,1.24,1.24,0,0,0,.13-.71,1.33,1.33,0,0,0-.75-1l-.07,0a1.5,1.5,0,0,0-.55-.11h-.16a1.41,1.41,0,0,0-1.08.75s-.05.08-.07.13a4.37,4.37,0,0,0-.53-.32,2.78,2.78,0,0,0-1.52-.18,4.76,4.76,0,0,0-2.12.77,6.3,6.3,0,0,0-1.59,1.5,8.2,8.2,0,0,0-1.56,3.56,14.74,14.74,0,0,1-1,1.42,10.71,10.71,0,0,1-1.16,1.31l-.17.16c0-.19.07-.43.13-.72,1.36-3.64,2.63-6.72,3.77-9.16,1.44-3.07,2-3.77,2.17-3.92a1.32,1.32,0,0,0,.65-1.29,1.28,1.28,0,0,0-.7-1,1.4,1.4,0,0,0-.66-.16h-.17a1.84,1.84,0,0,0-.86.37c-.44.32-1.26,1.23-3.11,5.27q-.76,1.66-1.56,3.57a3.76,3.76,0,0,0-.56-.33,2.88,2.88,0,0,0-1.55-.18,5.89,5.89,0,0,0-2.3.75,6.47,6.47,0,0,0-1.71,1.46,7.49,7.49,0,0,0-1.12,1.85,8.34,8.34,0,0,0-.57,2c0,.24-.05.47-.06.7a7.81,7.81,0,0,1-.53,1.24,5.85,5.85,0,0,1-.79,1.19,1.49,1.49,0,0,1-.33.3,8.35,8.35,0,0,1,.53-2.35,30.47,30.47,0,0,1,1.61-3.86,1.29,1.29,0,0,0,.12-.71,1.31,1.31,0,0,0-.75-1l-.07,0a1.31,1.31,0,0,0-.54-.11h-.18a1.41,1.41,0,0,0-1.07.74l-.07.14a2.5,2.5,0,0,0-2-.5,4.73,4.73,0,0,0-2.12.77,6.13,6.13,0,0,0-1.59,1.5c-.12.16-.22.33-.32.49a2.2,2.2,0,0,1,.12-.32l0-.08a1.73,1.73,0,0,0,.1-1.52,1.08,1.08,0,0,0-.79-.52,1.73,1.73,0,0,0-2,1.24c-.13.33-.49,1.43-1,2.95l-.14.42-.37,1.15-.09.26a10.35,10.35,0,0,1-.44,1,5,5,0,0,1-.69,1.06l0,0A1,1,0,0,1,94,33a8.35,8.35,0,0,1,.53-2.4,29.67,29.67,0,0,1,1.6-3.83,1.3,1.3,0,0,0,.13-.73,1.34,1.34,0,0,0-.75-1l-.09,0a1.66,1.66,0,0,0-.53-.1h-.17a1.46,1.46,0,0,0-1.07.74l-.07.14a3.35,3.35,0,0,0-.54-.32,2.73,2.73,0,0,0-1.51-.18,5,5,0,0,0-2.12.77,6.31,6.31,0,0,0-1.59,1.5,8.53,8.53,0,0,0-1.56,3.56,6.89,6.89,0,0,1-1.2,1.71A7,7,0,0,1,83.45,34a5,5,0,0,1-1.44.51,1.15,1.15,0,0,1-.53,0,.58.58,0,0,1-.18-.19,1.59,1.59,0,0,1-.18-.6,4.45,4.45,0,0,1,0-.73,1.37,1.37,0,0,0,.06-.42,5.38,5.38,0,0,1,.21-.81,5.67,5.67,0,0,1,1.11-2,2.68,2.68,0,0,1,1-.73,2,2,0,0,0-.09.2,2,2,0,0,1-.7.76l0,0a1.31,1.31,0,0,0-.58,1.24,1.42,1.42,0,0,0,.15.48l.13.19a1.43,1.43,0,0,0,1.07.49h.17a1.38,1.38,0,0,0,.53-.17l.07,0a4.64,4.64,0,0,0,1.71-1.85,3.72,3.72,0,0,0,.43-2.1,2.22,2.22,0,0,0-1.13-1.77,2.45,2.45,0,0,0-1.13-.28l-.36,0a5.3,5.3,0,0,0-3.13,1.65,8.53,8.53,0,0,0-2.15,4.5,7,7,0,0,1-1.27,2.2,2.1,2.1,0,0,1-.58.5,6.77,6.77,0,0,1,.34-1.34c.14-.43.28-.91.42-1.49a4.91,4.91,0,0,0,.09-1.7,3.33,3.33,0,0,0-.34-1.17,3,3,0,0,0-1.15-1.24,7.54,7.54,0,0,0-1.25-.59l-.06,0a4.86,4.86,0,0,0,0-1.22,1.52,1.52,0,0,0-.43-1,1.6,1.6,0,0,0-1.19-.52h-.21a1.41,1.41,0,0,0-1,.67l0,.06a3.56,3.56,0,0,0-.51,2.12,2.28,2.28,0,0,0,.32.95c-.35,1.25-.84,2.74-1.47,4.44l0,0,0,.14a8.51,8.51,0,0,1-.55,1.3,6.15,6.15,0,0,1-.79,1.19,1.71,1.71,0,0,1-.33.29,8.42,8.42,0,0,1,.53-2.35,29.43,29.43,0,0,1,1.6-3.83,1.27,1.27,0,0,0,.13-.73,1.34,1.34,0,0,0-.75-1l-.07,0a1.5,1.5,0,0,0-.55-.11h-.16a1.4,1.4,0,0,0-1.08.75l-.07.13a3,3,0,0,0-.53-.32,2.86,2.86,0,0,0-1.52-.18,4.68,4.68,0,0,0-2.12.77,6.13,6.13,0,0,0-1.59,1.5,8.33,8.33,0,0,0-1.07,1.89,2.67,2.67,0,0,0-.09.26,15.89,15.89,0,0,1-3.68,3.66,8.47,8.47,0,0,1-3.79,1.54,6.44,6.44,0,0,1-2.33-.16,3.5,3.5,0,0,1-1.84-1.92,6,6,0,0,1-.45-1.63,8.12,8.12,0,0,1,1.23-5,12.23,12.23,0,0,1,2.12-2.68A9.59,9.59,0,0,1,54.51,25a7.51,7.51,0,0,1,2.11-.57c.88-.1,1.52,0,1.87.55a2.23,2.23,0,0,1,.34,1.28,1.87,1.87,0,0,1-.59,1.38A2.85,2.85,0,0,1,57,28.5a3.82,3.82,0,0,1-.85.17A1.31,1.31,0,0,0,54.7,30a1.4,1.4,0,0,0,1.42,1.37h.09l.45,0a6.54,6.54,0,0,0,3.49-1.79,4.88,4.88,0,0,0,.9-5.46,3.79,3.79,0,0,0-2-2,4.73,4.73,0,0,0-2-.4,6.53,6.53,0,0,0-.85.05,9.32,9.32,0,0,0-3,.9,11.77,11.77,0,0,0-2.93,2.06A14.43,14.43,0,0,0,47.75,28a12,12,0,0,0-1.36,3.29,9.79,9.79,0,0,0-.21,3.3,8.45,8.45,0,0,0,.66,2.38,6,6,0,0,0,3.6,3.39,9.31,9.31,0,0,0,2.33.3,8.23,8.23,0,0,0,1.1-.07,11.13,11.13,0,0,0,5-1.94,16.4,16.4,0,0,0,1.81-1.43,3.33,3.33,0,0,0,.68,1.29,2.61,2.61,0,0,0,2,.87l.38,0A4.43,4.43,0,0,0,66.25,38a2.34,2.34,0,0,0,1.76.73l.38,0A3.25,3.25,0,0,0,70,38.09a5.65,5.65,0,0,0,1.14-1.15,8.81,8.81,0,0,0,.79-1.26,10.84,10.84,0,0,0,.5-1.1c0-.14.1-.25.13-.34h0l0-.08c.63-1.67,1.09-3,1.4-4a2.69,2.69,0,0,1,.34.17.51.51,0,0,1,.23.19,1,1,0,0,1,.1.34,2.5,2.5,0,0,1-.08.92,11.62,11.62,0,0,1-.34,1.19c-.13.43-.24.81-.34,1.21a4.25,4.25,0,0,0-.08,1.36,2.47,2.47,0,0,0,1.91,2.11,2.84,2.84,0,0,0,.75.11l.31,0A3.32,3.32,0,0,0,78.48,37a6.9,6.9,0,0,0,.86-.85,2.83,2.83,0,0,0,.3.3,3.3,3.3,0,0,0,2.11.71,3.48,3.48,0,0,0,.55,0,7.11,7.11,0,0,0,2.48-.83A9.31,9.31,0,0,0,86.63,35a3.72,3.72,0,0,0,.33.45,2.6,2.6,0,0,0,2,.87,2.36,2.36,0,0,0,.38,0A4.43,4.43,0,0,0,91.9,35a2.34,2.34,0,0,0,1.75.73,2.61,2.61,0,0,0,.39,0h0c-.07.23-.14.45-.2.67l-.32,1c-.06.19-.12.37-.17.54l-.06,0a11.77,11.77,0,0,0-4.11,3.27,6.76,6.76,0,0,0-1.15,2.14,5,5,0,0,0-.19,2.21,3.51,3.51,0,0,0,.28,1,3,3,0,0,0,1.23,1.45,2.65,2.65,0,0,0,1.34.37,3.13,3.13,0,0,0,.43,0l.19,0a3.11,3.11,0,0,0,2-1.39c1-1.49,2.1-5.44,2.46-6.89a33.11,33.11,0,0,1,5.81-1.29c2.65-.41,4.42-.69,4.89-1.9l0-.07a1.33,1.33,0,0,0,.12-.78,1.31,1.31,0,0,0-.7-1l-.1,0a1.59,1.59,0,0,0-.56-.11h-.18a1.14,1.14,0,0,0-.7.39s0,0,0,0a10,10,0,0,1-3.26.75,26.37,26.37,0,0,0-4.45.81l.79-2.72c.21-.71.42-1.37.62-2l0-.15.21-.66a7.19,7.19,0,0,0,0,1.14,3.69,3.69,0,0,0,.84,2,2.6,2.6,0,0,0,2,.87l.37,0A4.46,4.46,0,0,0,104.12,34a2.34,2.34,0,0,0,1.76.73l.38,0a3.37,3.37,0,0,0,1.62-.66A5.65,5.65,0,0,0,109,32.9l0,0a2.72,2.72,0,0,0,1.83.7l.39,0a4.59,4.59,0,0,0,2.62-1.23l.07.08a2.08,2.08,0,0,0,1.55.62l.37,0a4.93,4.93,0,0,0,2.93-1.85,2.88,2.88,0,0,0,.26.35,2.6,2.6,0,0,0,2,.87l.37,0A4.49,4.49,0,0,0,124,31a2.32,2.32,0,0,0,1.75.73l.38,0a3.22,3.22,0,0,0,1.62-.66,5.7,5.7,0,0,0,1.15-1.15h0a2.05,2.05,0,0,0,.25.27,3.61,3.61,0,0,0,2.44,1.11l.34,0a3.48,3.48,0,0,0,.47,0,5,5,0,0,0,1.79-.63,7.86,7.86,0,0,0,1.85-1.61,15.43,15.43,0,0,0,1.9-2.78l0-.08A1.39,1.39,0,0,0,138.12,25.48Zm-39.36.4,0,.06c-.06.14-.57,1.51-1.4,4.2-.11.34-.22.7-.34,1.06-.22.7-.46,1.42-.68,2.2L95,37.76c5.09-1.7,6.93-.93,9.48-2.1a1.16,1.16,0,0,0,.29-.22c.06-.07.1-.11.15-.11H105a.59.59,0,0,1,.21,0,.36.36,0,0,1,.22.29.37.37,0,0,1,0,.23s0,0,0,0c-.49,1.46-6,1.12-10.65,2.9,0,0-1.28,5.42-2.44,7.05a2.13,2.13,0,0,1-1.41,1l-.1,0-.3,0a1.74,1.74,0,0,1-.88-.24,2.07,2.07,0,0,1-.84-1,2.54,2.54,0,0,1-.22-.74,4.4,4.4,0,0,1,.16-1.8,5.92,5.92,0,0,1,1-1.83,11.94,11.94,0,0,1,4.16-3.22A.14.14,0,0,0,94,38c.15-.47.36-1.1.58-1.79.31-1,.63-2,.81-2.63l-.32.26a3,3,0,0,1-1.32.51l-.27,0a1.39,1.39,0,0,1-1.12-.49,1.83,1.83,0,0,1-.28-.66.23.23,0,0,0-.15-.15h0a.21.21,0,0,0-.16.08A3.94,3.94,0,0,1,89,34.93l-.26,0a1.7,1.7,0,0,1-1.3-.58,2.74,2.74,0,0,1-.59-1.51s0,0,0-.07a7.12,7.12,0,0,1-.58.67A9.31,9.31,0,0,1,84.11,35a6.3,6.3,0,0,1-2.15.73,3.17,3.17,0,0,1-.43,0A2.31,2.31,0,0,1,79.19,34c-.13.21-.26.42-.42.64a5.9,5.9,0,0,1-1.1,1.18,2.39,2.39,0,0,1-1.2.53h-.19a1.73,1.73,0,0,1-.5-.07A1.56,1.56,0,0,1,74.54,35a3,3,0,0,1,.07-1.06c.08-.34.18-.71.32-1.12s.26-.83.36-1.27a3.46,3.46,0,0,0,.09-1.23,2,2,0,0,0-.19-.64,1.36,1.36,0,0,0-.61-.6,6.06,6.06,0,0,0-.86-.38l-.35-.14H73.3s-.07,0-.09,0a.24.24,0,0,0-.11.13,48,48,0,0,1-1.59,4.73h0l-.15.39a10.38,10.38,0,0,1-.46,1A8,8,0,0,1,70.18,36a5.45,5.45,0,0,1-1,1,2.36,2.36,0,0,1-1.17.47l-.27,0a1.39,1.39,0,0,1-1.12-.5,1.77,1.77,0,0,1-.28-.65.21.21,0,0,0-.15-.15h0a.21.21,0,0,0-.16.08A3.94,3.94,0,0,1,63.32,38l-.26,0a1.71,1.71,0,0,1-1.3-.58,2.72,2.72,0,0,1-.59-1.51,5.61,5.61,0,0,1,0-1.29,16.45,16.45,0,0,1-3.12,2.81,10.23,10.23,0,0,1-4.54,1.78,7.93,7.93,0,0,1-1,.06,8.34,8.34,0,0,1-2.1-.27,5.08,5.08,0,0,1-3-2.9A7.31,7.31,0,0,1,46.88,34a8.66,8.66,0,0,1,.19-3,11,11,0,0,1,1.26-3,13.46,13.46,0,0,1,2.41-3,10.75,10.75,0,0,1,2.7-1.9,8.4,8.4,0,0,1,2.65-.82,6.57,6.57,0,0,1,.74-.05,3.8,3.8,0,0,1,1.61.32A3,3,0,0,1,60,24.06a3.93,3.93,0,0,1-.71,4.37,5,5,0,0,1-2,1.29,5.45,5.45,0,0,1-.94.25l-.4,0c-.59,0-.77-.8,0-.81A4.68,4.68,0,0,0,57.05,29a3.83,3.83,0,0,0,1.66-1.1,2.77,2.77,0,0,0,.82-2A3.1,3.1,0,0,0,59,24.05a2.33,2.33,0,0,0-2-1,6,6,0,0,0-.71,0,8.07,8.07,0,0,0-2.38.66,10,10,0,0,0-2.48,1.71,13,13,0,0,0-2.29,2.89,9,9,0,0,0-1.36,5.55,6.74,6.74,0,0,0,.52,1.89,4.33,4.33,0,0,0,2.44,2.44,7.54,7.54,0,0,0,1.86.24,7.89,7.89,0,0,0,.84,0,9.55,9.55,0,0,0,4.21-1.69,17.16,17.16,0,0,0,3.91-3.9.1.1,0,0,1,.05,0c0-.14.08-.27.13-.4a7.48,7.48,0,0,1,1-1.68A5.51,5.51,0,0,1,64,29.42a4,4,0,0,1,1.73-.62l.36,0a1.57,1.57,0,0,1,.65.12,2,2,0,0,1,.58.41,2.48,2.48,0,0,1,.32.54.2.2,0,0,0,.18.12h0a.2.2,0,0,0,.18-.12l.08-.18q.31-.68.48-1a.49.49,0,0,1,.36-.26H69a.43.43,0,0,1,.19,0,.4.4,0,0,1,.25.3.29.29,0,0,1,0,.2,32.32,32.32,0,0,0-1.65,4,7.67,7.67,0,0,0-.56,3,1,1,0,0,0,.2.54l0,0a.49.49,0,0,0,.36.11H68a1.94,1.94,0,0,0,1.19-.72,6.76,6.76,0,0,0,.92-1.38,7.91,7.91,0,0,0,.61-1.45l0-.07c.71-1.89,1.25-3.56,1.61-4.93a.19.19,0,0,0,0-.18A1.35,1.35,0,0,1,72,27.1a2.68,2.68,0,0,1,.41-1.58.44.44,0,0,1,.35-.23h.11a.7.7,0,0,1,.69.68,6,6,0,0,1-.13,1.52.18.18,0,0,0,.11.21c.19.09.39.18.62.27a7,7,0,0,1,1.11.51,2.14,2.14,0,0,1,.8.88,2.39,2.39,0,0,1,.24.85,4,4,0,0,1-.07,1.38c-.13.53-.26,1-.4,1.4a5,5,0,0,0-.38,1.85.75.75,0,0,0,.23.48,1.33,1.33,0,0,0,.46.24.58.58,0,0,0,.19,0h.09a2.17,2.17,0,0,0,1.23-.83,8.21,8.21,0,0,0,1.48-2.56,8,8,0,0,1,.34-1.48A7.45,7.45,0,0,1,81,28.05a4.32,4.32,0,0,1,2.58-1.36h.22a1.36,1.36,0,0,1,.69.17,1.27,1.27,0,0,1,.65,1,2.77,2.77,0,0,1-.35,1.59A3.7,3.7,0,0,1,83.45,31a.66.66,0,0,1-.2.06h-.07a.49.49,0,0,1-.37-.18.44.44,0,0,1,0-.15.4.4,0,0,1,.21-.39,2.71,2.71,0,0,0,1-1.15A2.07,2.07,0,0,0,84.27,28a1.74,1.74,0,0,0,0-.22.43.43,0,0,0-.21-.26.29.29,0,0,0-.19-.05H83.7a3.47,3.47,0,0,0-2.12,1.2A6.61,6.61,0,0,0,80.28,31,5.64,5.64,0,0,0,80,32.05a.06.06,0,0,0,0,0,1.32,1.32,0,0,1,0,.24,4.2,4.2,0,0,0,0,1,2.39,2.39,0,0,0,.33,1,1.4,1.4,0,0,0,.56.51,1.62,1.62,0,0,0,.6.14h0l.41,0a5.67,5.67,0,0,0,1.77-.6,8.3,8.3,0,0,0,1.84-1.33,7.48,7.48,0,0,0,1.42-2s0,0,0,0a9.56,9.56,0,0,1,.47-1.64,7.48,7.48,0,0,1,1-1.68,5.13,5.13,0,0,1,1.35-1.28,3.94,3.94,0,0,1,1.72-.63l.37,0a1.57,1.57,0,0,1,.65.12,2,2,0,0,1,.58.42,2.2,2.2,0,0,1,.32.53.2.2,0,0,0,.18.12h0a.2.2,0,0,0,.18-.12l.08-.16c.21-.46.37-.8.48-1a.49.49,0,0,1,.36-.26h.06a.46.46,0,0,1,.19,0,.36.36,0,0,1,.21.51,30.82,30.82,0,0,0-1.65,4,7.64,7.64,0,0,0-.56,3,1,1,0,0,0,.2.53l0,0a.49.49,0,0,0,.37.12h.15a2.08,2.08,0,0,0,1.33-.66l0,0a6,6,0,0,0,.81-1.25,8.54,8.54,0,0,0,.5-1.15,2.41,2.41,0,0,0,.08-.25c.1-.3.29-.87.49-1.5.38-1.17.84-2.63,1-3s.47-.69.81-.69h.11a.25.25,0,0,1,.17.07C99,25.27,98.87,25.61,98.76,25.88Zm38.16-.48A14.57,14.57,0,0,1,135.14,28a6.67,6.67,0,0,1-1.63,1.43,3.71,3.71,0,0,1-1.42.51,2.3,2.3,0,0,1-.37,0h-.25a2.67,2.67,0,0,1-1.89-.87.72.72,0,0,1-.3-.47.2.2,0,0,1,0-.12.48.48,0,0,1,.4-.32h.05a.49.49,0,0,1,.39.2,1.73,1.73,0,0,0,.59.52,2.12,2.12,0,0,0,.88.27l.2,0a1.73,1.73,0,0,0,1.26-.8,1.77,1.77,0,0,0,.19-1.09,3.87,3.87,0,0,0-.74-1.7,10.46,10.46,0,0,0-.82-1q-.54-.6-1-1.14a.19.19,0,0,0-.16-.07h0a.18.18,0,0,0-.15.13c-.34,1-.72,1.93-1.15,2.93,0,.09-.08.21-.14.36a7.26,7.26,0,0,1-.46,1,6.93,6.93,0,0,1-.71,1.13,4.64,4.64,0,0,1-1,1,2.33,2.33,0,0,1-1.16.47h-.27a1.38,1.38,0,0,1-1.12-.48,1.91,1.91,0,0,1-.28-.66.23.23,0,0,0-.15-.15h0a.21.21,0,0,0-.16.08A4,4,0,0,1,121.08,31l-.26,0a1.7,1.7,0,0,1-1.3-.58,2.7,2.7,0,0,1-.59-1.52s0-.07,0-.1c-.22.3-.45.61-.72.93a4.63,4.63,0,0,1-2.66,1.9h-.25a1.18,1.18,0,0,1-.89-.34,1.36,1.36,0,0,1-.36-.75.23.23,0,0,0-.15-.15h0a.17.17,0,0,0-.15.07,4.06,4.06,0,0,1-2.76,1.71,1.23,1.23,0,0,1-.27,0,1.89,1.89,0,0,1-1.43-.64,2.65,2.65,0,0,1-.45-.81l0,0a7.75,7.75,0,0,1-.71,1.14,5.19,5.19,0,0,1-1,1,2.46,2.46,0,0,1-1.17.47h-.27a1.39,1.39,0,0,1-1.12-.49,1.77,1.77,0,0,1-.28-.65.18.18,0,0,0-.15-.15h0a.2.2,0,0,0-.16.07,3.93,3.93,0,0,1-2.71,1.78h-.26a1.69,1.69,0,0,1-1.3-.57A2.88,2.88,0,0,1,99,31.85a6,6,0,0,1,.06-1.67,8.5,8.5,0,0,1,.5-1.84,7.26,7.26,0,0,1,1-1.67,5.33,5.33,0,0,1,1.35-1.29,4,4,0,0,1,1.73-.62,2.3,2.3,0,0,1,.36,0,1.57,1.57,0,0,1,.65.12,1.8,1.8,0,0,1,.58.41,2.41,2.41,0,0,1,.32.53.2.2,0,0,0,.18.12h0a.19.19,0,0,0,.18-.11l0-.09c.23-.5.4-.87.52-1.08a.47.47,0,0,1,.36-.26h.06a.46.46,0,0,1,.19,0,.37.37,0,0,1,.25.3.41.41,0,0,1,0,.21,31.55,31.55,0,0,0-1.65,3.95,7.64,7.64,0,0,0-.56,3,1.22,1.22,0,0,0,.19.54s0,0,0,0a.49.49,0,0,0,.36.11h.14a1.94,1.94,0,0,0,1.2-.72,6.76,6.76,0,0,0,.92-1.38,9,9,0,0,0,.61-1.45h0a7.1,7.1,0,0,1,.07-.77,7.28,7.28,0,0,1,.5-1.77,7.05,7.05,0,0,1,1-1.62,5.62,5.62,0,0,1,1.46-1.24,5,5,0,0,1,1.94-.63l.36,0a1.53,1.53,0,0,1,.68.13,1.75,1.75,0,0,1,.62.43,2.14,2.14,0,0,1,.34.6.2.2,0,0,0,.18.12h0a.21.21,0,0,0,.19-.12c.7-1.75,1.37-3.3,2-4.74,1.63-3.54,2.43-4.62,2.82-4.9a.94.94,0,0,1,.41-.2h.07a.54.54,0,0,1,.22.05.35.35,0,0,1,.21.28c0,.12,0,.27-.28.43-.49.38-1.28,1.78-2.46,4.29s-2.45,5.6-3.82,9.28a5.13,5.13,0,0,0-.18,1.67c0,.24.07.41.2.5a.34.34,0,0,0,.21.06h.13a2.32,2.32,0,0,0,1.22-.71,11.2,11.2,0,0,0,1.26-1.44A16.6,16.6,0,0,0,119,27.11l0,0a8.26,8.26,0,0,1,.48-1.7,7.68,7.68,0,0,1,1-1.68,5.74,5.74,0,0,1,1.36-1.29,4,4,0,0,1,1.72-.62l.37,0a1.57,1.57,0,0,1,.65.12,1.8,1.8,0,0,1,.58.41,2.67,2.67,0,0,1,.32.53.19.19,0,0,0,.18.13h0a.2.2,0,0,0,.18-.12l0-.08c.23-.5.4-.87.51-1.09a.48.48,0,0,1,.37-.26h.06a.46.46,0,0,1,.19,0,.37.37,0,0,1,.25.3.41.41,0,0,1,0,.21,30.12,30.12,0,0,0-1.65,4,7.64,7.64,0,0,0-.56,3,1.11,1.11,0,0,0,.19.54l0,.05a.49.49,0,0,0,.36.11h.14a2,2,0,0,0,1.2-.72,6.76,6.76,0,0,0,.92-1.38c.11-.21.2-.41.29-.61,0,0,0,0,0-.08l.05-.12.09-.2c.05-.15.12-.3.16-.44a.52.52,0,0,1,.07-.11c.12-.28.25-.6.4-1q.54-1.35,1-2.82a.29.29,0,0,0,0-.13,2.38,2.38,0,0,1-.14-.54,2,2,0,0,1,.67-1.72.49.49,0,0,1,.28-.13h.07a.51.51,0,0,1,.17,0,.38.38,0,0,1,.25.32V20a10.48,10.48,0,0,1-.34,1.9.17.17,0,0,0,0,.14,9.36,9.36,0,0,0,1.54,2c.34.39.62.73.85,1a4.53,4.53,0,0,1,.87,2l0,.22a.21.21,0,0,0,.14.17h.06a.21.21,0,0,0,.15-.07,14.6,14.6,0,0,0,1.6-2.39.46.46,0,0,1,.36-.24h0a.69.69,0,0,1,.25,0,.37.37,0,0,1,.22.29A.47.47,0,0,1,136.92,25.4Zm-6.77,2.28,0-.09.1-.25c.27-.64.53-1.27.76-1.88l.18.2a10,10,0,0,1,.74.87,2.77,2.77,0,0,1,.58,1.27.91.91,0,0,1-.07.5.72.72,0,0,1-.55.34h-.09a1,1,0,0,1-.41-.12,1.17,1.17,0,0,1-.26-.19h0l-.07-.12A1.49,1.49,0,0,0,130.15,27.68Z"/><path class="cls-1" d="M124.4,22.82a.75.75,0,0,0-.61-.25h-.17a3.07,3.07,0,0,0-1.74.79A5.62,5.62,0,0,0,120.64,25a7.86,7.86,0,0,0-.7,1.95,5.51,5.51,0,0,0-.12,1.86,2.2,2.2,0,0,0,.42,1.13.74.74,0,0,0,.61.28H121a3,3,0,0,0,1.9-1.22,9.34,9.34,0,0,0,1.52-2.85,5.66,5.66,0,0,0,.34-2.41A1.69,1.69,0,0,0,124.4,22.82Zm-.65,3.42a8.61,8.61,0,0,1-1.36,2.57,2.14,2.14,0,0,1-1.25.88,1.6,1.6,0,0,1-.17-.59,5,5,0,0,1,.1-1.55,7,7,0,0,1,.62-1.71,4.46,4.46,0,0,1,1-1.35,2.15,2.15,0,0,1,1.23-.56,1,1,0,0,1,.08.32A4.93,4.93,0,0,1,123.75,26.24Z"/><path class="cls-1" d="M104.52,25.78a.77.77,0,0,0-.62-.25h-.17a3.1,3.1,0,0,0-1.74.79,5.8,5.8,0,0,0-1.24,1.61,7.86,7.86,0,0,0-.7,1.95,5.77,5.77,0,0,0-.12,1.86,2.2,2.2,0,0,0,.42,1.13.76.76,0,0,0,.61.28h.14a3,3,0,0,0,1.9-1.21,9.79,9.79,0,0,0,1.52-2.85,5.79,5.79,0,0,0,.33-2.41A1.68,1.68,0,0,0,104.52,25.78Zm-.66,3.42a8.51,8.51,0,0,1-1.36,2.57,2.15,2.15,0,0,1-1.25.87,1.48,1.48,0,0,1-.17-.58,4.72,4.72,0,0,1,.11-1.55,6.72,6.72,0,0,1,.61-1.71,5,5,0,0,1,1-1.35,2.17,2.17,0,0,1,1.23-.56h0a1.44,1.44,0,0,1,.08.33A4.8,4.8,0,0,1,103.86,29.2Z"/><path class="cls-1" d="M98.67,24.05a1.56,1.56,0,0,0,.87.26l.27,0a1.56,1.56,0,0,0,1-.58,1.41,1.41,0,0,0,.31-1.13,1.47,1.47,0,0,0-.65-1,1.65,1.65,0,0,0-2.14.34A1.43,1.43,0,0,0,98,23.06,1.45,1.45,0,0,0,98.67,24.05Zm.17-2a.64.64,0,0,1,.42-.24h.14a.62.62,0,0,1,.35.1.49.49,0,0,1,.23.37.48.48,0,0,1-.11.41.63.63,0,0,1-.43.23l-.13,0a.63.63,0,0,1-.35-.11.49.49,0,0,1-.23-.35A.48.48,0,0,1,98.84,22.08Z"/></svg>