<svg id="Capa_1" data-name="Capa 1" xmlns="http://www.w3.org/2000/svg" viewBox="0 0 184.25 59.53"><defs><style>.cls-1{fill:#fff;}</style></defs><path class="cls-1" d="M96.64,14.71v8.23a4.53,4.53,0,0,1-.64,2.5,3,3,0,0,1-2.66,1.38,3.72,3.72,0,0,1-1.27-.2C91.36,26.36,91,26,91,25.41a.89.89,0,0,1,.06-.3.82.82,0,0,1,.84-.6.87.87,0,0,1,.74.33,5.8,5.8,0,0,1,.3.84c.13.42.37.64.74.64a.94.94,0,0,0,.55-.17c.43-.32.64-1.33.64-3V14.71H93v-.53h5.24v.53Z"/><path class="cls-1" d="M105.32,24.82a3,3,0,0,1-.55.82,3.46,3.46,0,0,1-2.52,1,3.08,3.08,0,0,1-1.17-.22,2.13,2.13,0,0,1-1.37-2.13,2.84,2.84,0,0,1,.12-.84c.46-1.34,2.3-2,5.5-2V20.18a1.91,1.91,0,0,0-2-2.11,1.43,1.43,0,0,0-1.21.51,5,5,0,0,0-.39.9c-.15.39-.38.59-.69.59a.75.75,0,0,1-.21,0,.66.66,0,0,1-.59-.73,1.15,1.15,0,0,1,.25-.7c.51-.71,1.54-1.07,3.07-1.07H104a2.75,2.75,0,0,1,2.92,3.09V25c0,.69.2,1,.55,1.07s.71-.52.8-1.52l.53,0a.93.93,0,0,1,0,.23c-.11,1.27-.68,1.9-1.74,1.9S105.48,26,105.32,24.82Zm-1.48.82a2.7,2.7,0,0,0,1.49-2V22a13.61,13.61,0,0,0-2.43.21c-1.05.25-1.58.83-1.58,1.74a2.43,2.43,0,0,0,.07.63,1.43,1.43,0,0,0,1.53,1.25A2.22,2.22,0,0,0,103.84,25.64Z"/><path class="cls-1" d="M114.26,26c.2,0,.31.19.31.49h-5.06V26a3.34,3.34,0,0,0,1-.11c.36-.12.54-.5.54-1.12V18.27h-1.54v-.51h3l.08,2a3.85,3.85,0,0,1,.72-1.11,2.9,2.9,0,0,1,2.19-1.05,1.89,1.89,0,0,1,.39.05,1.06,1.06,0,0,1,.94,1.12.69.69,0,0,1,0,.25.74.74,0,0,1-.78.59.77.77,0,0,1-.25,0c-.19-.05-.39-.27-.61-.65s-.41-.52-.64-.52a1.43,1.43,0,0,0-.75.46,4,4,0,0,0-1.15,3V26h1.47A.62.62,0,0,1,114.26,26Z"/><path class="cls-1" d="M124.53,24.29A3.41,3.41,0,0,1,119.31,26a4.3,4.3,0,0,1-1.59-3.71,5.54,5.54,0,0,1,.69-2.76,3.7,3.7,0,0,1,3.4-2,3.45,3.45,0,0,1,2.7,1.11v-5h-1.94v-.51h3.48l0,12.79h1a.68.68,0,0,1,.21,0c.2,0,.31.19.31.49H124.7Zm-4.87-.49q.51,2,2.19,2a2.16,2.16,0,0,0,1.5-.59,4.6,4.6,0,0,0,1.22-3.56,5.46,5.46,0,0,0-.34-2,2.21,2.21,0,0,0-2.13-1.59,2.34,2.34,0,0,0-1.09.26c-1,.58-1.55,1.82-1.55,3.75A6.94,6.94,0,0,0,119.66,23.8Z"/><path class="cls-1" d="M133.21,26q.27,0,.27.51h-4.75v-.53c1,0,1.53-.36,1.55-1.07V18.29h-1.55v-.53h3.19v8.17H133A.82.82,0,0,1,133.21,26Zm-1.1-10.85c-1.16.72-1.91,1.21-2.23,1.47l-.33-.35a9.64,9.64,0,0,0,1.1-1.47,14.91,14.91,0,0,1,1-1.45,1,1,0,0,1,.59-.27,1,1,0,0,1,.94.92.91.91,0,0,1-.27.57A5.78,5.78,0,0,1,132.11,15.1Z"/><path class="cls-1" d="M138.8,26c.2,0,.3.19.3.49h-4.5V26a3.3,3.3,0,0,0,1-.11c.36-.12.54-.5.54-1.12V18.27H134.6v-.51h3l.08,2a4,4,0,0,1,.6-1,3.09,3.09,0,0,1,2.49-1.21,2.67,2.67,0,0,1,1.41.39,3.18,3.18,0,0,1,1.42,2.93V26h1a.68.68,0,0,1,.21,0c.2,0,.3.19.3.49h-4.6V26a3.34,3.34,0,0,0,1-.11c.36-.12.53-.5.53-1.12v-4a3,3,0,0,0-.18-1.07,1.68,1.68,0,0,0-1.7-1.17,2.08,2.08,0,0,0-1.12.35,3.14,3.14,0,0,0-1.36,2.75V26h.93A.65.65,0,0,1,138.8,26Z"/><path class="cls-1" d="M83.6,36.67l-.29-1a1.43,1.43,0,0,0-.06-.21c-.42-1.32-1.12-2-2.11-2H77.87v5.12h4.21v.59H77.87v5.5h3.27a2,2,0,0,0,.66-.1c.67-.23,1.17-.93,1.51-2.09l.29-1H84l-.1,3.69H74.47v-.54h1.64V33.52H74.47V33h9.44l.1,3.68Z"/><path class="cls-1" d="M89.84,44.77c.21,0,.31.2.31.5h-4.5v-.52a3.42,3.42,0,0,0,1-.1c.36-.12.53-.5.53-1.12V37.08H85.65v-.51h3l.08,2a3.6,3.6,0,0,1,.59-1,3.11,3.11,0,0,1,2.5-1.21,2.73,2.73,0,0,1,1.41.39,3.18,3.18,0,0,1,1.41,2.93v5.07h1l.2,0c.2,0,.31.2.31.5H91.54v-.52a3.37,3.37,0,0,0,1-.1c.36-.12.54-.5.54-1.12V39.48a3,3,0,0,0-.19-1.07,1.67,1.67,0,0,0-1.7-1.17,2.1,2.1,0,0,0-1.12.35,3.15,3.15,0,0,0-1.35,2.74v4.42h.92Z"/><path class="cls-1" d="M98,38.59a3.9,3.9,0,0,1,3.83-2.23,4.44,4.44,0,0,1,2,.48,2,2,0,0,1,1.33,1.71.88.88,0,0,1,0,.27.76.76,0,0,1-.88.57,1.16,1.16,0,0,1-.45-.12,1.43,1.43,0,0,1-.45-1c0-.24-.08-.4-.1-.51-.15-.58-.6-.86-1.33-.86a2.46,2.46,0,0,0-1.31.36c-.95.61-1.41,1.8-1.41,3.59a5.27,5.27,0,0,0,.61,2.61,2.52,2.52,0,0,0,2.27,1.46l.33,0a2.9,2.9,0,0,0,2.49-1.78l.54.18a4.5,4.5,0,0,1-.39.7,3.73,3.73,0,0,1-3.21,1.49,4.43,4.43,0,0,1-2.56-.76A4.15,4.15,0,0,1,97.48,41,5.55,5.55,0,0,1,98,38.59Z"/><path class="cls-1" d="M116.31,44.77c.2,0,.3.2.3.5h-2.88l-.14-2.09a4.28,4.28,0,0,1-.6,1,3.06,3.06,0,0,1-2.52,1.25c-1.94,0-2.91-1.19-2.92-3.52V37.08H106v-.51h3.11v5.69a3.91,3.91,0,0,0,0,.61,1.8,1.8,0,0,0,1.95,1.72,2.08,2.08,0,0,0,1.18-.39,3,3,0,0,0,1.29-2.7V37.08h-1.68v-.51h3.22v8.18h1Z"/><path class="cls-1" d="M125.53,43.87a3.58,3.58,0,0,1-3.25,1.6,4.37,4.37,0,0,1-2.47-.72A4.2,4.2,0,0,1,118,41a5.39,5.39,0,0,1,.58-2.5,3.81,3.81,0,0,1,3.66-2.13,4.37,4.37,0,0,1,2.31.6A2.48,2.48,0,0,1,126,39.17a1.36,1.36,0,0,1-.56,1.16,6.19,6.19,0,0,1-3.21.47l-2.46,0a8.34,8.34,0,0,0,.19,1.58c.37,1.71,1.26,2.56,2.7,2.56l.39,0a2.85,2.85,0,0,0,2.31-1.76l.51.18A3.83,3.83,0,0,1,125.53,43.87Zm-4.27-6.75c-1,.48-1.47,1.5-1.54,3.07l2.17.06a6.66,6.66,0,0,0,1.46-.08,1.16,1.16,0,0,0,1-1.25,2.14,2.14,0,0,0-.17-.84,1.83,1.83,0,0,0-1.9-1.2A2.17,2.17,0,0,0,121.26,37.12Z"/><path class="cls-1" d="M131.47,44.77c.21,0,.31.2.31.5h-4.5v-.52a3.46,3.46,0,0,0,1-.1c.35-.12.53-.5.53-1.12V37.08h-1.53v-.51h3l.09,2a3.6,3.6,0,0,1,.59-1,3.11,3.11,0,0,1,2.5-1.21,2.73,2.73,0,0,1,1.41.39,3.18,3.18,0,0,1,1.41,2.93v5.07h1l.2,0c.2,0,.3.2.3.5h-4.6v-.52a3.37,3.37,0,0,0,1-.1c.36-.12.54-.5.54-1.12V39.48a3,3,0,0,0-.19-1.07,1.68,1.68,0,0,0-1.69-1.17,2.11,2.11,0,0,0-1.13.35,3.18,3.18,0,0,0-1.36,2.74v4.42h.93Z"/><path class="cls-1" d="M138.69,36.57h1.44v-2l1.54-.43v2.38h3.17v.51h-3.17V43.3c0,1,.38,1.55,1.12,1.58s1.15-.71,1.49-1.85l.56.11v0c-.32,1.54-1.1,2.31-2.36,2.31-1.47-.05-2.26-.93-2.35-2.64V37.08h-1.44Z"/><path class="cls-1" d="M150.34,44.77c.21,0,.31.2.31.5h-5.06v-.52a3.5,3.5,0,0,0,1-.1c.35-.12.53-.5.53-1.12V37.08h-1.54v-.51h3l.08,2a4.18,4.18,0,0,1,.72-1.1,2.9,2.9,0,0,1,2.19-1.05,1.89,1.89,0,0,1,.39.05,1,1,0,0,1,.94,1.12.77.77,0,0,1,0,.25.74.74,0,0,1-.78.59.67.67,0,0,1-.24,0c-.2,0-.4-.27-.62-.66s-.4-.51-.63-.51a1.45,1.45,0,0,0-.76.45,4,4,0,0,0-1.15,3v4.07h1.48Z"/><path class="cls-1" d="M160.76,37.08a4.25,4.25,0,0,1,1.9,3.82,4.44,4.44,0,0,1-1.19,3.18,4.21,4.21,0,0,1-3.25,1.39,4.43,4.43,0,0,1-2.54-.78,4.38,4.38,0,0,1-1.88-3.86A4.3,4.3,0,0,1,155,37.71a4.36,4.36,0,0,1,3.27-1.35A4.52,4.52,0,0,1,160.76,37.08Zm-5.08,5.42c.36,1.64,1.23,2.46,2.6,2.46a2.78,2.78,0,0,0,.76-.1c1.25-.4,1.88-1.74,1.88-4a9.06,9.06,0,0,0-.06-1.09c-.24-1.91-1.12-2.86-2.64-2.86a2.69,2.69,0,0,0-.94.16c-1.16.46-1.74,1.75-1.74,3.86A8.58,8.58,0,0,0,155.68,42.5Z"/><path class="cls-1" d="M34.33,18.85a3.1,3.1,0,1,0-3.1-3.1A3.1,3.1,0,0,0,34.33,18.85Z"/><path class="cls-1" d="M60.06,42.33a24.05,24.05,0,0,0,1.78-2.12,1,1,0,0,1,.08-.11,24.24,24.24,0,0,0,1.49-2.29l.09-.17a22.72,22.72,0,0,0,1.18-2.43l.09-.22a21.62,21.62,0,0,0,.85-2.54c0-.09,0-.17.08-.27.11-.43.21-.87.3-1.31h0c.09-.44.16-.88.22-1.32,0-.1,0-.2,0-.31,0-.44.1-.89.13-1.35h0c0-.45,0-.9,0-1.36V26.2c0-.46,0-.92,0-1.38s0-.69-.08-1c0-.1,0-.2,0-.3l-.09-.71-.06-.35L66,21.78c0-.12,0-.24-.07-.36s-.09-.43-.14-.64l-.09-.35c0-.21-.11-.43-.17-.64s-.06-.21-.09-.32l-.24-.73c0-.07,0-.14-.07-.21-.11-.31-.22-.62-.34-.92l-.07-.16c-.1-.25-.2-.49-.31-.73l-.15-.33L64,15.85l-.19-.37L63.57,15c-.07-.13-.14-.26-.22-.39s-.17-.29-.25-.43l-.25-.41-.25-.38L62.31,13l-.2-.28a22.44,22.44,0,0,0-2.3-2.76A28.68,28.68,0,0,0,46.48,26.83C43.62,37,47.81,45.65,49.62,48.74a23.47,23.47,0,0,0,8.25-4.37l.08-.06a23,23,0,0,0,2-1.91Z"/><path class="cls-1" d="M33.72,33.29a26.07,26.07,0,0,0-12.13-.11,23.18,23.18,0,0,0,4.71,8.71,30.69,30.69,0,0,0,10,6.61l.09,0a22.25,22.25,0,0,0,8.23,1,22.69,22.69,0,0,0,2.48-.3,27,27,0,0,1-4.25-11.79A26.78,26.78,0,0,0,33.72,33.29Z"/></svg>