<svg id="Capa_1" data-name="Capa 1" xmlns="http://www.w3.org/2000/svg" viewBox="0 0 240.94 59.53"><defs><style>.cls-1{fill:#fff;}</style></defs><path class="cls-1" d="M45.77,27.76H43.2l.45-2h7.93l-.45,2H48.56L46.81,36H44Z"/><path class="cls-1" d="M53,28.34l-.29,1.57h0a2.82,2.82,0,0,1,2.37-1.75,3,3,0,0,1,1.13.19l-.61,2.35a1.83,1.83,0,0,0-1.23-.33c-1.12,0-1.78,1-2,2.11L51.65,36H49l1.2-5.69c.13-.66.25-1.31.33-2Z"/><path class="cls-1" d="M60.62,35l0,0v0A2.91,2.91,0,0,1,58,36.21c-1.65,0-2.57-.74-2.57-2.23,0-1.89,1.89-2.82,4.24-2.82.53,0,1.06,0,1.43.07a1.09,1.09,0,0,0,0-.31c0-.55-.55-1-1.42-1a4.84,4.84,0,0,0-2.49.61l.27-1.94a8.4,8.4,0,0,1,2.81-.44c1.84,0,3.34.72,3.34,2.61,0,1.21-.68,2.94-1,5.26H60.51Zm-1.77-.51a2,2,0,0,0,2-1.82,3.69,3.69,0,0,0-.71,0c-1.27,0-2.2.42-2.2,1.1A.85.85,0,0,0,58.85,34.44Z"/><path class="cls-1" d="M65.53,30.34c.13-.66.25-1.31.32-2h2.47l-.21,1.25h0a3.65,3.65,0,0,1,3-1.43,2.38,2.38,0,0,1,2.39,2.66,6.72,6.72,0,0,1-.21,1.62L72.59,36H69.84l.74-3.6a6.6,6.6,0,0,0,.17-1.17.88.88,0,0,0-1-.89c-1.12,0-1.79,1-2,2.11L67,36H64.33Z"/><path class="cls-1" d="M74.31,34a5.35,5.35,0,0,0,2.15.45c.43,0,1.49,0,1.49-.68,0-1.1-3.17-.54-3.17-3.07,0-1.81,2.1-2.53,3.88-2.53a8.85,8.85,0,0,1,2.56.46l-.56,1.74a5.33,5.33,0,0,0-2.13-.43c-.59,0-1.24.13-1.24.67,0,.85,3.32.79,3.32,2.73S79,36.18,77,36.21a12.68,12.68,0,0,1-3.24-.4Z"/><path class="cls-1" d="M88.34,35.78a9.86,9.86,0,0,1-2.69.43c-2.57,0-4-1.58-4-3.52a4.43,4.43,0,0,1,4.61-4.53c2,0,3.54,1,3.54,3.35A8.9,8.9,0,0,1,89.65,33H84.2c0,.83.44,1.48,2.07,1.48a5.88,5.88,0,0,0,2.4-.54Zm-.71-4.33c0-.82-.33-1.52-1.3-1.52a2,2,0,0,0-2,1.52Z"/><path class="cls-1" d="M91.54,30.34c.13-.66.25-1.31.33-2h2.46l-.21,1.25h0a3.65,3.65,0,0,1,3-1.43,2.38,2.38,0,0,1,2.39,2.66,7.15,7.15,0,0,1-.2,1.62L98.6,36H95.85l.74-3.6a6.62,6.62,0,0,0,.18-1.17.88.88,0,0,0-1-.89c-1.12,0-1.78,1-2,2.11L93,36H90.34Z"/><path class="cls-1" d="M107.21,35.78a9.86,9.86,0,0,1-2.69.43c-2.57,0-4-1.58-4-3.52a4.43,4.43,0,0,1,4.61-4.53c2,0,3.54,1,3.54,3.35a8.9,8.9,0,0,1-.19,1.45h-5.45c0,.83.44,1.48,2.07,1.48a6,6,0,0,0,2.41-.54Zm-.71-4.33c0-.82-.33-1.52-1.3-1.52a2,2,0,0,0-2,1.52Z"/><path class="cls-1" d="M113.12,28.34l-.29,1.57h0a2.82,2.82,0,0,1,2.38-1.75,3,3,0,0,1,1.12.19l-.61,2.35a1.81,1.81,0,0,0-1.22-.33c-1.13,0-1.79,1-2,2.11L111.79,36h-2.65l1.19-5.69c.13-.66.25-1.31.33-2Z"/><path class="cls-1" d="M28.67,18.43,17.34,29.76,28.67,41.1,40,29.76ZM25.93,34.77l-3.18-8.48H29.1Zm5.61-1.68-2-5.41h4.05Zm2.59-4.46h2.44l-1.22,3.26Z"/><path class="cls-1" d="M147,28.29a24.05,24.05,0,0,0,8.74-3.84,13.86,13.86,0,0,0-1.29-.61l-.2-.09-.16-.05-.44-.16h0A11.77,11.77,0,0,0,150,23a11.9,11.9,0,0,0-10.21,5.79A24.18,24.18,0,0,0,147,28.29Z"/><path class="cls-1" d="M155.79,25.08a24.54,24.54,0,0,1-8.64,3.71,24.8,24.8,0,0,1-7.65.45h0a11.57,11.57,0,0,0-1.3,4.07,23.17,23.17,0,0,0,4.56-.55A23.93,23.93,0,0,0,155.79,25.08Z"/><path class="cls-1" d="M156.25,25.34a24.56,24.56,0,0,1-13.38,7.94,24.13,24.13,0,0,1-4.74.56h0s-3.21,1.49-3.21,1.49a.58.58,0,0,0-.46.52.55.55,0,0,0,.59.55h10.27A24.18,24.18,0,0,0,156.25,25.34Z"/><path class="cls-1" d="M162.94,35.63a1,1,0,0,0-.77-1l-.23,0a4.64,4.64,0,0,0,0-.51c0-.15,0-.29,0-.44a12,12,0,0,0-5-8.5h0A24.64,24.64,0,0,1,146.43,36.4H162.6A1,1,0,0,0,162.94,35.63Z"/><path class="cls-1" d="M139.78,28.75h0c-.05.08-.1.18-.16.27l-.12.22h0a2.53,2.53,0,0,1,.13-.22Z"/><path class="cls-1" d="M156.59,24.94l.09.06.22.16h0l-.23-.16-.09-.06-.12-.08-.11-.07-.08-.05-.13-.08-.1-.06-.27-.15h0Z"/><polygon class="cls-1" points="145.31 36.4 145.85 36.41 146.43 36.4 146.43 36.4 145.32 36.4 145.31 36.4"/><path class="cls-1" d="M138.16,33.56a.41.41,0,0,0,0-.11.5.5,0,0,0,0-.12h0l0,.28a.06.06,0,0,0,0,0s0-.08,0-.11a.59.59,0,0,0,0-.13l0,.14,0,.12a2.28,2.28,0,0,1,0,.26h0l0-.23Z"/><path class="cls-1" d="M189.3,30.67c.13-.67.25-1.32.32-2h2.49l-.21,1.26h0a3.66,3.66,0,0,1,3-1.44,2.39,2.39,0,0,1,2.41,2.67,6.8,6.8,0,0,1-.21,1.64l-.71,3.61h-2.76l.74-3.63a6.62,6.62,0,0,0,.18-1.17.88.88,0,0,0-1-.89c-1.13,0-1.8,1-2,2.12l-.76,3.57H188.1Z"/><path class="cls-1" d="M198.25,34.34a5.61,5.61,0,0,0,2.17.44c.43,0,1.5,0,1.5-.68,0-1.1-3.19-.54-3.19-3.09,0-1.81,2.11-2.54,3.91-2.54a8.9,8.9,0,0,1,2.56.46l-.56,1.75a5.38,5.38,0,0,0-2.14-.43c-.59,0-1.25.14-1.25.67,0,.86,3.35.8,3.35,2.75S203,36.53,201,36.57a12.3,12.3,0,0,1-3.25-.41Z"/><path class="cls-1" d="M205,36.39a17.58,17.58,0,0,0,.54-1.93l2-9.22h2.63l-1,4.34h0a3.32,3.32,0,0,1,2.5-1.11c1.9,0,2.88,1.45,2.88,3.2,0,2.53-1.28,4.9-4.07,4.9a2.65,2.65,0,0,1-2.69-1.64h0l-.39,1.46Zm4.87-1.87a2.22,2.22,0,0,0,2-2.41c0-.95-.43-1.59-1.27-1.59-1.27,0-2,1.4-2,2.42C208.57,33.73,209,34.52,209.85,34.52Z"/><path class="cls-1" d="M220.56,35.3l0,0v0a2.94,2.94,0,0,1-2.6,1.27c-1.66,0-2.58-.75-2.58-2.25,0-1.9,1.9-2.84,4.26-2.84.54,0,1.08.05,1.44.08a1.12,1.12,0,0,0,0-.31c0-.55-.55-1-1.42-1a4.86,4.86,0,0,0-2.51.61l.26-1.95a8.59,8.59,0,0,1,2.84-.44c1.84,0,3.36.73,3.36,2.63,0,1.21-.68,3-1,5.29h-2.18Zm-1.78-.52a2,2,0,0,0,2-1.83,4.6,4.6,0,0,0-.71,0c-1.28,0-2.22.42-2.22,1.1A.86.86,0,0,0,218.78,34.78Z"/><path class="cls-1" d="M169.18,28.07H166.6L167,26h8l-.45,2.05H172l-1.77,8.32h-2.81Z"/><path class="cls-1" d="M176.43,28.65l-.29,1.59h0a2.82,2.82,0,0,1,2.39-1.77,3,3,0,0,1,1.13.19L179.08,31a1.89,1.89,0,0,0-1.23-.32c-1.13,0-1.8,1-2,2.12l-.76,3.57h-2.67l1.2-5.72c.13-.67.25-1.32.32-2Z"/><path class="cls-1" d="M184.37,35.3l0,0v0a3,3,0,0,1-2.6,1.27c-1.67,0-2.59-.75-2.59-2.25,0-1.9,1.9-2.84,4.26-2.84.54,0,1.07.05,1.45.08a1.12,1.12,0,0,0,0-.31c0-.55-.55-1-1.43-1a4.86,4.86,0,0,0-2.51.61l.27-1.95a8.51,8.51,0,0,1,2.84-.44c1.84,0,3.35.73,3.35,2.63,0,1.21-.68,3-1,5.29h-2.18Zm-1.79-.52a2,2,0,0,0,2-1.83,4.72,4.72,0,0,0-.72,0c-1.28,0-2.21.42-2.21,1.1A.85.85,0,0,0,182.58,34.78Z"/></svg>