<svg id="Capa_1" data-name="Capa 1" xmlns="http://www.w3.org/2000/svg" viewBox="0 0 184.25 59.53"><defs><style>.cls-1{fill:#fff;}</style></defs><path class="cls-1" d="M118.71,24.84c-.67-.69-5.65-5.86-5.8-6-3.9-2.62-5.35,4.78-.67,3.75L115,25.5C107.9,30.38,100.83,19,109,15c6.3-2.26,8.28,3.48,12.47,7.06Z"/><path class="cls-1" d="M124.74,27.28a9.52,9.52,0,0,1-5-1.68l2.76-2.86c3.79,2.21,8.64-1.34,8.21-5-.11-5.9-8.79-7.33-10.77-1.7L117,13c4.63-8.09,18-4.31,17.57,5A9.45,9.45,0,0,1,124.74,27.28Z"/><path class="cls-1" d="M52.66,34.16A5.74,5.74,0,0,1,57,35.91a6.65,6.65,0,0,1,1.7,4.83v9.77h-4.1V41.25a3.26,3.26,0,0,0-.86-2.43A3.14,3.14,0,0,0,51.42,38a3.38,3.38,0,0,0-2.54,1,4.1,4.1,0,0,0-1,3v8.59h-4.1V34.6h4.1v1.79A5.3,5.3,0,0,1,52.66,34.16Z"/><path class="cls-1" d="M72.35,34.6h4.11V50.51H72.35V48.73A5.28,5.28,0,0,1,67.62,51a5.74,5.74,0,0,1-4.31-1.75,6.59,6.59,0,0,1-1.71-4.83V34.6h4.11v9.26a3.22,3.22,0,0,0,.86,2.43,3.09,3.09,0,0,0,2.29.85,3.37,3.37,0,0,0,2.54-1,4.08,4.08,0,0,0,.95-3Z"/><path class="cls-1" d="M88.62,34.16a7.26,7.26,0,0,1,5.49,2.43,9,9,0,0,1,0,11.93A7.26,7.26,0,0,1,88.62,51a6.13,6.13,0,0,1-5.15-2.32v1.88H79.36V28.24h4.11v8.24A6.13,6.13,0,0,1,88.62,34.16ZM84.71,45.79A4.24,4.24,0,0,0,87.86,47,4.31,4.31,0,0,0,91,45.79a4.77,4.77,0,0,0,0-6.46,4.28,4.28,0,0,0-3.16-1.26,4.21,4.21,0,0,0-3.15,1.26,4.83,4.83,0,0,0,0,6.46Z"/><path class="cls-1" d="M101.35,32.7a2.56,2.56,0,0,1-2.51-2.52,2.46,2.46,0,0,1,.75-1.78,2.39,2.39,0,0,1,1.76-.76,2.43,2.43,0,0,1,1.8.76,2.46,2.46,0,0,1,.75,1.78,2.42,2.42,0,0,1-.75,1.77A2.45,2.45,0,0,1,101.35,32.7Zm-2,17.81V34.6h4.1V50.51Z"/><path class="cls-1" d="M110.43,37.34a4.27,4.27,0,0,1,1.89-2.29,5.75,5.75,0,0,1,2.94-.76v4.58a4.79,4.79,0,0,0-3.35.76,3.64,3.64,0,0,0-1.48,3.28v7.6h-4.1V34.6h4.1Z"/><path class="cls-1" d="M129.36,34.6h4.1V50.51h-4.1V48.63A6.24,6.24,0,0,1,124.17,51a7.19,7.19,0,0,1-5.45-2.43,8.94,8.94,0,0,1,0-11.93,7.19,7.19,0,0,1,5.45-2.43,6.24,6.24,0,0,1,5.19,2.32Zm-7.57,11.19A4.23,4.23,0,0,0,124.93,47a4.32,4.32,0,0,0,3.17-1.25,4.77,4.77,0,0,0,0-6.46,4.29,4.29,0,0,0-3.17-1.26,4.2,4.2,0,0,0-3.14,1.26,4.8,4.8,0,0,0,0,6.46Z"/><path class="cls-1" d="M136.33,50.51V27.29h4.1V50.51Z"/></svg>