<?xml version="1.0" encoding="utf-8"?>
<!-- Generator: Adobe Illustrator 25.2.0, SVG Export Plug-In . SVG Version: 6.00 Build 0)  -->
<svg version="1.1" id="Capa_1" xmlns="http://www.w3.org/2000/svg" xmlns:xlink="http://www.w3.org/1999/xlink" x="0px" y="0px"
	 viewBox="0 0 100.02 100.02" style="enable-background:new 0 0 100.02 100.02;" xml:space="preserve">
<style type="text/css">
	.st0{fill:#1E120D;}
	.st1{fill:#F1EEE8;}
	.st2{fill:#DCD63C;}
	.st3{fill:#66C6C6;}
	.st4{fill:#F2C4D3;}
	.st5{fill:#F7E9DC;}
	.st6{fill:#C4DB3E;}
	.st7{fill:#3A7EC1;}
	.st8{fill:#0E3B7C;}
	.st9{fill:#F2E8DA;}
	.st10{fill:#69BCC0;}
	.st11{fill:#5284BF;}
	.st12{fill:#F4C7AA;}
	.st13{fill:#F4CBCE;}
	.st14{fill:#FFFFFF;}
	.st15{opacity:0.5;}
	.st16{fill:#457CC0;}
</style>
<circle cx="50.01" cy="50.01" r="48.19"/>
<g>
	<g>
		<path class="st14" d="M18.11,68.92c-0.05,0.2-0.19,0.36-0.4,0.48c-0.21,0.12-0.41,0.15-0.61,0.09c-0.2-0.06-0.36-0.19-0.48-0.4
			c-0.12-0.21-0.16-0.41-0.1-0.62c0.05-0.2,0.18-0.36,0.39-0.48c0.21-0.12,0.41-0.15,0.62-0.1c0.2,0.06,0.36,0.19,0.48,0.4
			C18.13,68.51,18.16,68.72,18.11,68.92z"/>
		<path class="st14" d="M11.02,59.97l4.66,0.47l0.3,0.94l-3.53,3.07l-0.33-1.02l2.53-2.17l-3.32-0.33L11.02,59.97z"/>
		<path class="st14" d="M13.49,54.6l0.3,1.97l0.97,0.24l0.15,1.01l-4.53-1.25l-0.15-0.97l3.96-2.54l0.16,1.03L13.49,54.6z
			 M12.79,55.03l-1.52,0.92L13,56.37L12.79,55.03z"/>
		<path class="st14" d="M9.88,47.39l4.29,0.07l-0.01,0.82l-2.64,2.1l2.61,0.04l-0.02,0.98l-4.29-0.07l0.01-0.82l2.64-2.09
			l-2.61-0.04L9.88,47.39z"/>
		<path class="st14" d="M14.07,44.71c-0.4,0.27-0.9,0.35-1.52,0.24l-2.36-0.44l0.18-0.98l2.33,0.44c0.76,0.14,1.19-0.1,1.31-0.73
			c0.06-0.31,0.01-0.56-0.14-0.75c-0.15-0.19-0.42-0.33-0.81-0.4l-2.33-0.44l0.18-0.96l2.36,0.44c0.62,0.12,1.06,0.37,1.34,0.77
			c0.27,0.4,0.35,0.9,0.24,1.5C14.72,44,14.46,44.44,14.07,44.71z"/>
		<path class="st14" d="M16.89,35.67c-0.32,0.24-0.68,0.38-1.07,0.42c-0.39,0.04-0.78-0.02-1.17-0.2c-0.39-0.18-0.69-0.43-0.91-0.76
			c-0.22-0.33-0.35-0.69-0.37-1.09c-0.02-0.4,0.06-0.8,0.24-1.2c0.16-0.34,0.36-0.62,0.6-0.83c0.24-0.22,0.52-0.37,0.83-0.45
			l0.27,0.83c-0.43,0.12-0.73,0.38-0.91,0.77c-0.11,0.24-0.16,0.48-0.14,0.72c0.02,0.24,0.1,0.45,0.24,0.65
			c0.14,0.19,0.33,0.35,0.57,0.46c0.24,0.11,0.48,0.16,0.72,0.14c0.24-0.02,0.45-0.1,0.65-0.24c0.19-0.14,0.35-0.33,0.46-0.57
			c0.18-0.39,0.18-0.79-0.01-1.19l0.8-0.33c0.14,0.29,0.21,0.6,0.2,0.93c-0.01,0.33-0.09,0.66-0.25,1
			C17.46,35.11,17.21,35.43,16.89,35.67z"/>
		<path class="st14" d="M20.03,28.68l-1.11,1.65l0.55,0.83L18.89,32l-2.49-3.99l0.55-0.81l4.63,0.81L21,28.87L20.03,28.68z
			 M19.23,28.51l-1.74-0.35l0.98,1.48L19.23,28.51z"/>
		<path class="st14" d="M24.52,24.77l-1.44-0.21l-0.03,0.04l-0.59,0.63l0.87,0.82l-0.68,0.72l-3.13-2.94l1.27-1.36
			c0.26-0.28,0.53-0.47,0.82-0.59c0.28-0.12,0.56-0.15,0.84-0.1c0.27,0.05,0.53,0.18,0.76,0.4c0.23,0.22,0.38,0.46,0.44,0.73
			c0.06,0.27,0.04,0.55-0.06,0.84l1.67,0.24L24.52,24.77z M21.95,22.7c-0.2,0.02-0.4,0.15-0.61,0.36l-0.55,0.59l1.09,1.02l0.55-0.59
			c0.2-0.22,0.31-0.43,0.32-0.63c0.01-0.2-0.07-0.39-0.24-0.55C22.34,22.75,22.15,22.67,21.95,22.7z"/>
		<path class="st14" d="M26.42,17.73c0.3-0.07,0.58-0.06,0.84,0.03c0.26,0.09,0.49,0.26,0.69,0.52c0.19,0.25,0.3,0.51,0.33,0.79
			c0.02,0.28-0.04,0.55-0.18,0.82c-0.14,0.27-0.37,0.52-0.67,0.76l-0.68,0.53l0.73,0.94l-0.79,0.61l-2.63-3.39l1.47-1.14
			C25.82,17.95,26.12,17.8,26.42,17.73z M27.31,19.46c0.04-0.2-0.01-0.39-0.15-0.58c-0.15-0.19-0.32-0.29-0.52-0.3
			c-0.2-0.01-0.42,0.08-0.66,0.26l-0.64,0.5l0.91,1.18l0.64-0.5C27.13,19.85,27.27,19.66,27.31,19.46z"/>
		<path class="st14" d="M29.09,15.72l0.85-0.51l2.19,3.69l-0.85,0.51L29.09,15.72z"/>
		<path class="st14" d="M34.81,17.26c-0.4-0.04-0.77-0.17-1.08-0.4c-0.32-0.23-0.56-0.54-0.72-0.93c-0.16-0.39-0.22-0.78-0.16-1.17
			c0.06-0.39,0.21-0.74,0.46-1.06c0.25-0.32,0.59-0.56,1-0.74c0.41-0.17,0.82-0.24,1.22-0.2s0.76,0.17,1.08,0.4
			c0.32,0.23,0.56,0.54,0.73,0.93c0.16,0.39,0.22,0.78,0.16,1.17c-0.06,0.39-0.21,0.74-0.46,1.06c-0.25,0.32-0.58,0.56-0.99,0.73
			C35.63,17.23,35.22,17.3,34.81,17.26z M36.27,15.85c0.14-0.19,0.23-0.4,0.25-0.64c0.03-0.24-0.01-0.48-0.12-0.72
			c-0.1-0.24-0.25-0.44-0.44-0.59c-0.19-0.15-0.4-0.23-0.63-0.26c-0.23-0.03-0.47,0.01-0.7,0.11c-0.23,0.1-0.42,0.24-0.56,0.43
			c-0.14,0.19-0.23,0.4-0.25,0.64c-0.03,0.24,0.01,0.48,0.12,0.72c0.1,0.25,0.25,0.44,0.44,0.59s0.4,0.23,0.63,0.26
			c0.23,0.03,0.47-0.01,0.7-0.11C35.94,16.18,36.13,16.04,36.27,15.85z"/>
		<path class="st14" d="M42.74,13.67c-0.17-0.12-0.28-0.3-0.32-0.53c-0.04-0.24,0-0.44,0.12-0.61c0.12-0.17,0.3-0.27,0.54-0.32
			c0.24-0.04,0.44-0.01,0.62,0.11c0.17,0.11,0.28,0.29,0.32,0.53c0.04,0.24,0,0.44-0.12,0.61c-0.12,0.17-0.3,0.28-0.54,0.32
			C43.12,13.83,42.91,13.79,42.74,13.67z"/>
		<path class="st14" d="M49.76,13.69c-0.31-0.34-0.45-0.81-0.44-1.42l0.07-2.44l0.61,0.02l-0.07,2.42
			c-0.03,0.92,0.36,1.39,1.17,1.42c0.39,0.01,0.7-0.09,0.91-0.31c0.22-0.22,0.33-0.56,0.34-1.03l0.07-2.42l0.59,0.02l-0.07,2.44
			c-0.02,0.62-0.19,1.08-0.52,1.4c-0.33,0.32-0.78,0.46-1.35,0.45C50.51,14.2,50.07,14.03,49.76,13.69z"/>
		<path class="st14" d="M57.91,15.01l-0.94-1.98l-1.57,1.51l-0.69-0.13l1.99-1.87l-1.1-2.34l0.69,0.13l0.88,1.84l1.47-1.4l0.66,0.12
			l-1.87,1.76l1.19,2.48L57.91,15.01z"/>
		<path class="st14" d="M63.32,11.19l0.51,0.16l-3.69,4.88l-0.51-0.16L63.32,11.19z"/>
		<path class="st14" d="M64.37,16.63c-0.15-0.43-0.09-0.93,0.17-1.48l1.05-2.21l0.55,0.26l-1.04,2.18c-0.39,0.83-0.23,1.42,0.5,1.77
			c0.35,0.17,0.68,0.19,0.96,0.08c0.29-0.12,0.53-0.38,0.73-0.81l1.03-2.18l0.54,0.25l-1.05,2.21c-0.26,0.56-0.61,0.91-1.04,1.07
			c-0.43,0.16-0.9,0.11-1.42-0.13C64.85,17.41,64.51,17.07,64.37,16.63z"/>
		<path class="st14" d="M71.49,16.08l0.52,0.33l-2.33,3.61l-0.52-0.33L71.49,16.08z"/>
		<path class="st14" d="M76.96,20.22l1.3,1.26c0.33,0.32,0.55,0.66,0.68,1.03c0.13,0.37,0.15,0.75,0.06,1.11
			c-0.09,0.37-0.28,0.7-0.57,1.01c-0.29,0.3-0.62,0.5-0.99,0.6c-0.37,0.1-0.74,0.09-1.11-0.02c-0.38-0.12-0.73-0.33-1.06-0.65
			l-1.3-1.26L76.96,20.22z M75.62,24.15c0.25,0.24,0.52,0.41,0.8,0.49c0.28,0.09,0.56,0.09,0.83,0.02c0.27-0.08,0.52-0.23,0.74-0.46
			c0.22-0.23,0.37-0.48,0.43-0.75c0.07-0.27,0.05-0.55-0.04-0.83c-0.1-0.28-0.27-0.54-0.52-0.78l-0.83-0.81l-2.24,2.32L75.62,24.15z
			"/>
		<path class="st14" d="M80.53,30.09l-0.43,0.31l-1.83-2.52l3.48-2.52l1.78,2.45l-0.43,0.31l-1.42-1.96l-1.07,0.77l1.26,1.74
			l-0.42,0.31l-1.26-1.74l-1.12,0.81L80.53,30.09z"/>
		<path class="st14" d="M81.47,32.53c-0.05-0.31-0.04-0.58,0.02-0.81l0.53-0.02c-0.05,0.21-0.06,0.45-0.03,0.72
			c0.04,0.27,0.12,0.52,0.24,0.76c0.17,0.32,0.34,0.52,0.53,0.62c0.19,0.1,0.37,0.1,0.55,0.01c0.13-0.07,0.21-0.17,0.25-0.29
			c0.04-0.13,0.05-0.27,0.02-0.41c-0.02-0.15-0.06-0.35-0.13-0.61c-0.08-0.32-0.13-0.59-0.16-0.8c-0.02-0.21,0-0.42,0.08-0.62
			c0.08-0.2,0.24-0.36,0.48-0.49c0.2-0.11,0.41-0.15,0.63-0.13c0.22,0.02,0.43,0.12,0.65,0.28c0.21,0.17,0.4,0.41,0.57,0.73
			c0.12,0.23,0.2,0.46,0.26,0.71c0.05,0.25,0.07,0.48,0.04,0.69l-0.53,0.05c0.02-0.21,0.01-0.42-0.04-0.63
			c-0.04-0.21-0.11-0.4-0.2-0.57c-0.16-0.31-0.34-0.51-0.53-0.61c-0.19-0.1-0.38-0.1-0.56,0c-0.13,0.07-0.21,0.17-0.25,0.3
			c-0.04,0.13-0.04,0.27-0.02,0.42c0.02,0.15,0.06,0.35,0.13,0.6c0.08,0.32,0.13,0.59,0.15,0.8c0.02,0.21,0,0.41-0.08,0.61
			c-0.08,0.2-0.23,0.36-0.47,0.49c-0.2,0.1-0.41,0.14-0.63,0.12c-0.22-0.02-0.44-0.12-0.65-0.29c-0.21-0.17-0.4-0.42-0.57-0.74
			C81.62,33.14,81.52,32.85,81.47,32.53z"/>
		<path class="st14" d="M87.39,35.31l0.22,0.57l-4.01,1.54l-0.22-0.57L87.39,35.31z"/>
		<path class="st14" d="M87.26,42.19l0.14,0.57l-1.63,0.4c-0.22-0.16-0.41-0.37-0.57-0.63c-0.16-0.25-0.27-0.53-0.35-0.82
			c-0.1-0.42-0.1-0.82,0-1.21c0.1-0.38,0.29-0.71,0.57-0.98s0.62-0.46,1.02-0.56c0.41-0.1,0.8-0.09,1.17,0.02s0.69,0.32,0.96,0.61
			c0.27,0.3,0.45,0.66,0.56,1.08c0.08,0.33,0.1,0.65,0.06,0.95c-0.04,0.3-0.15,0.57-0.31,0.81l-0.46-0.28
			c0.24-0.41,0.3-0.85,0.19-1.33c-0.08-0.32-0.22-0.59-0.41-0.81c-0.2-0.22-0.44-0.37-0.72-0.45c-0.28-0.08-0.57-0.09-0.88-0.01
			c-0.3,0.07-0.56,0.21-0.77,0.41c-0.21,0.2-0.35,0.45-0.43,0.73c-0.08,0.29-0.08,0.59,0,0.9c0.09,0.37,0.26,0.68,0.51,0.91
			L87.26,42.19z"/>
		<path class="st14" d="M90.2,48.98l-4.28,0.31l-0.04-0.5l3.01-2.8l-3.19,0.23l-0.04-0.61l4.28-0.31l0.04,0.5l-3.01,2.8l3.19-0.23
			L90.2,48.98z"/>
		<path class="st14" d="M86.12,54.94l-0.53-0.05l0.27-3.1l4.28,0.38l-0.27,3.02l-0.53-0.05l0.21-2.41l-1.31-0.12l-0.19,2.15
			l-0.52-0.05l0.19-2.15l-1.38-0.12L86.12,54.94z"/>
		<path class="st14" d="M84.54,59.84l1.5-0.59c0.02-0.11,0.04-0.2,0.05-0.27l0.25-1.03l-1.27-0.31l0.15-0.6l4.17,1.02L89,59.7
			c-0.13,0.54-0.37,0.93-0.7,1.18c-0.33,0.25-0.73,0.31-1.18,0.2c-0.32-0.08-0.58-0.23-0.76-0.44c-0.19-0.21-0.3-0.48-0.33-0.8
			l-1.64,0.65L84.54,59.84z M86.64,60.02c0.11,0.24,0.32,0.39,0.62,0.47c0.3,0.07,0.56,0.03,0.77-0.13c0.21-0.16,0.36-0.43,0.45-0.8
			l0.25-1.01l-1.88-0.46l-0.25,1.01C86.52,59.47,86.53,59.78,86.64,60.02z"/>
		<path class="st14" d="M81.06,67.95l0.77-0.24c-0.15-0.51-0.1-1.02,0.17-1.53c0.13-0.25,0.29-0.46,0.48-0.62
			c0.19-0.16,0.39-0.26,0.6-0.3c0.21-0.04,0.41,0,0.6,0.09c0.23,0.12,0.4,0.3,0.51,0.53c0.11,0.24,0.17,0.57,0.19,1
			c0.25-0.08,0.47-0.12,0.64-0.12c0.17,0,0.33,0.04,0.47,0.11c0.26,0.13,0.42,0.33,0.48,0.6c0.06,0.27,0.01,0.56-0.15,0.87
			c-0.15,0.29-0.34,0.48-0.57,0.58c-0.23,0.1-0.47,0.08-0.72-0.05c-0.19-0.1-0.33-0.25-0.42-0.46c-0.09-0.2-0.14-0.5-0.16-0.87
			l-1.43,0.46c0.15,0.22,0.34,0.41,0.57,0.59l-0.35,0.35c-0.3-0.24-0.53-0.5-0.7-0.78l-0.78,0.25L81.06,67.95z M82.29,67.55
			l1.64-0.53c-0.01-0.34-0.05-0.59-0.12-0.76c-0.07-0.17-0.19-0.29-0.34-0.37c-0.18-0.09-0.37-0.09-0.56,0.01
			c-0.19,0.1-0.36,0.28-0.49,0.53C82.22,66.81,82.18,67.18,82.29,67.55z M85.5,67.68c-0.03-0.14-0.12-0.25-0.26-0.32
			c-0.1-0.05-0.21-0.07-0.32-0.07c-0.12,0.01-0.3,0.04-0.53,0.12c0.01,0.32,0.04,0.56,0.1,0.71c0.05,0.15,0.14,0.25,0.26,0.32
			c0.13,0.07,0.25,0.07,0.37,0.02c0.12-0.05,0.22-0.15,0.31-0.31C85.51,67.98,85.54,67.82,85.5,67.68z"/>
		<path class="st14" d="M75.57,75.25l2.33,2.09l-0.9-2.9l0.19-0.21l2.96,0.58l-2.31-2.08l0.39-0.44l3.19,2.87l-0.34,0.37l-3.44-0.69
			l1.06,3.33l-0.34,0.37l-3.2-2.87L75.57,75.25z"/>
		<path class="st14" d="M73.4,79.7l0.13-1.11l-0.68-0.87l0.48-0.38l2.65,3.38l-0.48,0.38l-1.48-1.89l-0.36,3.33l-0.55,0.43
			l0.25-2.65l-2.99-0.66l0.57-0.44L73.4,79.7z"/>
		<path class="st14" d="M70.15,84.17l1.27-0.74l0.27,0.46l-3.07,1.78l-0.27-0.46l1.27-0.74l-1.89-3.25l0.52-0.3L70.15,84.17z"/>
		<path class="st14" d="M61.78,84.04c0.32,0.01,0.58,0.06,0.79,0.16l-0.07,0.52c-0.2-0.09-0.44-0.14-0.71-0.15
			c-0.27-0.01-0.54,0.02-0.79,0.11c-0.34,0.11-0.57,0.24-0.71,0.41c-0.13,0.17-0.17,0.35-0.11,0.54c0.05,0.14,0.13,0.24,0.25,0.3
			c0.12,0.06,0.25,0.09,0.4,0.09c0.15,0,0.36,0,0.62-0.02c0.33-0.02,0.6-0.03,0.82-0.01c0.21,0.01,0.41,0.08,0.59,0.19
			c0.18,0.11,0.32,0.3,0.4,0.56c0.07,0.22,0.07,0.43,0.01,0.64c-0.06,0.21-0.19,0.41-0.39,0.59c-0.2,0.18-0.47,0.32-0.82,0.43
			c-0.24,0.08-0.49,0.12-0.74,0.13c-0.25,0.01-0.48-0.02-0.69-0.08l0.05-0.53c0.21,0.06,0.42,0.08,0.63,0.07
			c0.21,0,0.41-0.04,0.6-0.1c0.33-0.1,0.56-0.24,0.69-0.42c0.13-0.17,0.16-0.36,0.1-0.55c-0.04-0.14-0.13-0.24-0.25-0.3
			c-0.12-0.06-0.26-0.09-0.41-0.09c-0.15-0.01-0.36,0-0.61,0.02c-0.33,0.02-0.6,0.03-0.81,0.01c-0.21-0.01-0.41-0.08-0.59-0.19
			c-0.18-0.11-0.31-0.29-0.4-0.55c-0.07-0.21-0.07-0.43-0.01-0.64c0.06-0.21,0.19-0.41,0.4-0.59c0.21-0.18,0.48-0.32,0.83-0.43
			C61.15,84.08,61.46,84.03,61.78,84.04z"/>
		<path class="st14" d="M54.85,89.52c-0.36-0.21-0.57-0.55-0.64-1.01c-0.07-0.46,0.03-0.85,0.3-1.16c0.27-0.31,0.68-0.51,1.23-0.6
			l1.05-0.17l-0.2-1.29l0.61-0.1l0.67,4.24l-1.65,0.26C55.66,89.8,55.21,89.73,54.85,89.52z M55,87.66
			c-0.18,0.19-0.24,0.45-0.19,0.75c0.05,0.31,0.19,0.53,0.41,0.66c0.23,0.13,0.53,0.17,0.92,0.11l1.03-0.16l-0.3-1.9l-1.03,0.16
			C55.46,87.34,55.18,87.47,55,87.66z"/>
		<path class="st14" d="M48.55,86.44l0-0.53l3.12-0.02l0.03,4.29l-3.03,0.02l0-0.53l2.42-0.02l-0.01-1.32l-2.15,0.01l0-0.52
			l2.15-0.01l-0.01-1.39L48.55,86.44z"/>
		<path class="st14" d="M45.58,85.87c0.31,0.24,0.54,0.54,0.69,0.89c0.15,0.36,0.19,0.74,0.13,1.16c-0.06,0.41-0.21,0.77-0.45,1.07
			c-0.24,0.3-0.55,0.52-0.92,0.66c-0.37,0.14-0.77,0.18-1.19,0.11c-0.33-0.05-0.63-0.15-0.89-0.3c-0.26-0.15-0.47-0.35-0.63-0.6
			l0.45-0.33c0.27,0.38,0.65,0.61,1.12,0.68c0.32,0.05,0.61,0.02,0.89-0.09c0.28-0.1,0.5-0.27,0.68-0.5c0.18-0.23,0.29-0.5,0.34-0.8
			c0.04-0.31,0.01-0.6-0.09-0.87c-0.11-0.27-0.28-0.49-0.51-0.67c-0.23-0.18-0.51-0.29-0.83-0.34c-0.47-0.07-0.9,0.04-1.27,0.34
			l-0.34-0.44c0.23-0.19,0.49-0.32,0.78-0.39c0.29-0.07,0.61-0.09,0.94-0.04C44.9,85.48,45.27,85.63,45.58,85.87z"/>
		<path class="st14" d="M39.69,88.85l-0.59-0.16l1.13-4.14l0.59,0.16L39.69,88.85z"/>
		<path class="st14" d="M34.88,83.76l2.11,0.87l0.84-0.81l0.58,0.24l-3.43,3.23l-0.56-0.23l-0.17-4.71l0.6,0.25L34.88,83.76z
			 M34.89,84.29l0.06,2.3L36.6,85L34.89,84.29z"/>
		<path class="st14" d="M30.42,85.12L29.9,84.8l1.93-3.23l-2-1.19l0.27-0.46l2.52,1.51L30.42,85.12z"/>
		<path class="st14" d="M25.95,82.19l-0.49-0.37l2.6-3.42l0.49,0.37L25.95,82.19z"/>
		<path class="st14" d="M25.8,76.64c0.15,0.28,0.23,0.54,0.24,0.77l-0.49,0.19c-0.02-0.22-0.08-0.45-0.21-0.69
			c-0.12-0.24-0.28-0.46-0.47-0.65c-0.26-0.25-0.49-0.39-0.7-0.42c-0.21-0.03-0.39,0.02-0.52,0.17c-0.1,0.11-0.15,0.23-0.14,0.36
			c0.01,0.13,0.04,0.27,0.11,0.4c0.07,0.13,0.17,0.31,0.32,0.53c0.18,0.28,0.31,0.52,0.4,0.71c0.09,0.19,0.13,0.4,0.12,0.61
			c-0.01,0.21-0.11,0.42-0.3,0.62c-0.16,0.17-0.34,0.27-0.56,0.32c-0.21,0.05-0.45,0.03-0.7-0.06s-0.51-0.26-0.77-0.51
			c-0.18-0.18-0.34-0.37-0.47-0.59c-0.13-0.22-0.22-0.43-0.26-0.64l0.49-0.21c0.05,0.21,0.13,0.4,0.24,0.59
			c0.11,0.18,0.23,0.34,0.37,0.48c0.25,0.24,0.48,0.38,0.7,0.4c0.21,0.03,0.39-0.03,0.53-0.17c0.1-0.11,0.15-0.23,0.14-0.36
			c-0.01-0.13-0.05-0.27-0.11-0.41c-0.07-0.14-0.17-0.31-0.31-0.53c-0.18-0.28-0.31-0.52-0.4-0.71c-0.09-0.19-0.13-0.39-0.12-0.61
			c0.01-0.21,0.11-0.42,0.29-0.61c0.16-0.16,0.34-0.27,0.56-0.32c0.22-0.05,0.45-0.03,0.71,0.07c0.25,0.09,0.51,0.27,0.78,0.52
			C25.46,76.11,25.65,76.36,25.8,76.64z"/>
		<path class="st14" d="M19.17,74.91l0.92,1.15l-0.42,0.33l-2.21-2.78l0.42-0.33l0.92,1.15l2.94-2.34l0.38,0.47L19.17,74.91z"/>
	</g>
	<path class="st14" d="M51.48,70.31c-0.98-0.35-1.7-1.02-1.63-2.31c0.07-1.29,1.11-9.65,2.17-16.07c1.06-6.41,2.86-15.99,2.53-18.86
		c-0.26-2.33-0.06-3.08-4.82-0.96c-4.77,2.13-5.85,3.52-9.5,6.72c-3.66,3.2-5.8,5.74-8.1,10.26c-2.3,4.52-1.98,6.68-0.77,8.29
		c1.22,1.62,4.89,2.21,8.74,1.06c3.39-1.01,3.86-1.52,4.77-2.09c1.01-0.63,1.55-1.23,1.93-0.76c0.38,0.47,0.32,0.77-0.72,1.6
		c-1.04,0.83-2.64,2.33-8.25,3.2C32.21,61.27,29.07,60,27.86,59c-1.21-1-1.72-3.41-0.62-6.53c1.1-3.12,2.24-6.41,9.01-12.98
		c7.46-7.24,13.2-9.5,16.39-9.97c3.2-0.47,5.14,1.18,5.28,3.24c0.14,2.05,0.06,5.66-0.87,10.96c-0.99,5.7-2.31,15.12-2.59,17.49
		c-0.28,2.37-0.4,4.01-0.4,4.01s2.67-2.54,5.85-10.16c3.18-7.62,3.8-11.1,3.93-12.61c0.09-1.05-0.14-1.44-0.14-1.44
		s1.5-0.7,2.26-0.33c0.76,0.38,2.5,1.83,2.1,4.15c-0.39,2.33-1.61,6.68-4.76,12.89c-2.44,4.81-7.3,10.37-7.89,11.15
		c-0.59,0.78-1.39,1.81-2.35,1.73C52.12,70.53,51.48,70.31,51.48,70.31z"/>
</g>
</svg>
