<?xml version="1.0" encoding="utf-8"?>
<!-- Generator: Adobe Illustrator 25.2.0, SVG Export Plug-In . SVG Version: 6.00 Build 0)  -->
<svg version="1.1" id="Capa_1" xmlns="http://www.w3.org/2000/svg" xmlns:xlink="http://www.w3.org/1999/xlink" x="0px" y="0px"
	 viewBox="0 0 100.02 100.02" style="enable-background:new 0 0 100.02 100.02;" xml:space="preserve">
<style type="text/css">
	.st0{fill:#1E120D;}
	.st1{fill:#F1EEE8;}
	.st2{fill:#DCD63C;}
	.st3{fill:#66C6C6;}
	.st4{fill:#F2C4D3;}
	.st5{fill:#F7E9DC;}
	.st6{fill:#C4DB3E;}
	.st7{fill:#3A7EC1;}
	.st8{fill:#0E3B7C;}
	.st9{fill:#F2E8DA;}
	.st10{fill:#69BCC0;}
	.st11{fill:#5284BF;}
	.st12{fill:#F4C7AA;}
	.st13{fill:#F4CBCE;}
	.st14{fill:#FFFFFF;}
	.st15{opacity:0.5;}
	.st16{fill:#457CC0;}
</style>
<g>
	<g>
		<path d="M16.9,69.64c-0.06,0.21-0.19,0.38-0.41,0.5c-0.22,0.12-0.43,0.16-0.63,0.1c-0.21-0.06-0.37-0.2-0.5-0.42
			c-0.12-0.22-0.16-0.43-0.11-0.64c0.05-0.21,0.19-0.38,0.4-0.5c0.22-0.12,0.43-0.16,0.64-0.1c0.21,0.06,0.38,0.2,0.5,0.41
			C16.92,69.22,16.95,69.43,16.9,69.64z"/>
		<path d="M9.54,60.35l4.83,0.49l0.31,0.97l-3.67,3.18l-0.34-1.06l2.62-2.26l-3.45-0.35L9.54,60.35z"/>
		<path d="M12.11,54.78l0.31,2.05l1,0.25l0.16,1.04l-4.7-1.29l-0.15-1.01l4.11-2.64l0.16,1.07L12.11,54.78z M11.38,55.22L9.8,56.17
			l1.79,0.44L11.38,55.22z"/>
		<path d="M8.36,47.29l4.46,0.07l-0.01,0.85l-2.74,2.18l2.71,0.04l-0.02,1.02l-4.46-0.07l0.01-0.85l2.74-2.17l-2.71-0.04L8.36,47.29
			z"/>
		<path d="M12.7,44.51c-0.41,0.28-0.94,0.37-1.58,0.24L8.67,44.3l0.19-1.01l2.42,0.45c0.78,0.15,1.24-0.1,1.36-0.76
			c0.06-0.32,0.01-0.58-0.15-0.78c-0.16-0.2-0.44-0.34-0.85-0.42l-2.42-0.45l0.19-1l2.45,0.46c0.64,0.12,1.1,0.39,1.39,0.8
			s0.36,0.93,0.25,1.56C13.38,43.77,13.11,44.23,12.7,44.51z"/>
		<path d="M15.63,35.13c-0.33,0.25-0.7,0.4-1.11,0.44c-0.41,0.04-0.81-0.03-1.21-0.21c-0.4-0.19-0.72-0.45-0.95-0.78
			s-0.36-0.72-0.38-1.13c-0.03-0.42,0.06-0.83,0.25-1.25c0.16-0.35,0.37-0.64,0.62-0.87c0.25-0.23,0.54-0.38,0.86-0.47l0.28,0.86
			c-0.44,0.13-0.76,0.39-0.94,0.8c-0.12,0.25-0.16,0.5-0.15,0.75c0.02,0.25,0.1,0.47,0.25,0.67s0.34,0.36,0.59,0.47
			c0.25,0.12,0.5,0.16,0.75,0.15c0.25-0.02,0.47-0.1,0.67-0.25c0.2-0.15,0.36-0.34,0.48-0.59c0.19-0.4,0.18-0.82-0.01-1.24
			l0.83-0.34c0.15,0.3,0.21,0.62,0.21,0.96c-0.01,0.34-0.09,0.69-0.26,1.04C16.22,34.55,15.96,34.88,15.63,35.13z"/>
		<path d="M18.89,27.86l-1.16,1.72l0.57,0.86l-0.59,0.88l-2.59-4.14l0.57-0.85l4.81,0.84l-0.6,0.9L18.89,27.86z M18.06,27.7
			l-1.81-0.37l1.02,1.54L18.06,27.7z"/>
		<path d="M23.55,23.81l-1.49-0.22l-0.03,0.04l-0.61,0.65l0.9,0.85l-0.71,0.75l-3.25-3.05l1.32-1.41c0.27-0.29,0.55-0.49,0.85-0.61
			c0.29-0.12,0.58-0.16,0.87-0.11c0.28,0.05,0.55,0.19,0.79,0.42c0.24,0.23,0.39,0.48,0.46,0.76c0.07,0.28,0.04,0.57-0.06,0.87
			L24.31,23L23.55,23.81z M20.88,21.66c-0.21,0.03-0.42,0.15-0.63,0.38l-0.57,0.61l1.13,1.06l0.58-0.61
			c0.21-0.23,0.32-0.44,0.33-0.66c0.01-0.21-0.07-0.4-0.25-0.57C21.29,21.71,21.09,21.64,20.88,21.66z"/>
		<path d="M25.53,16.5c0.31-0.07,0.6-0.06,0.88,0.03s0.51,0.27,0.71,0.53c0.2,0.26,0.31,0.53,0.34,0.82
			c0.03,0.29-0.04,0.57-0.19,0.85c-0.15,0.28-0.38,0.54-0.69,0.78l-0.71,0.55l0.75,0.97l-0.82,0.63l-2.73-3.52l1.53-1.18
			C24.91,16.73,25.22,16.57,25.53,16.5z M26.45,18.3c0.04-0.2-0.01-0.4-0.16-0.6c-0.15-0.2-0.33-0.3-0.54-0.31
			c-0.21-0.01-0.44,0.08-0.68,0.27l-0.66,0.52l0.95,1.22l0.67-0.52C26.26,18.71,26.4,18.51,26.45,18.3z"/>
		<path d="M28.3,14.42l0.89-0.53l2.28,3.83l-0.89,0.53L28.3,14.42z"/>
		<path d="M34.24,16.02c-0.42-0.04-0.79-0.18-1.12-0.42c-0.33-0.24-0.58-0.56-0.75-0.96c-0.17-0.4-0.23-0.81-0.17-1.21
			c0.06-0.4,0.22-0.77,0.48-1.1c0.26-0.33,0.61-0.58,1.04-0.76c0.43-0.18,0.85-0.25,1.27-0.21s0.79,0.18,1.12,0.42
			s0.58,0.56,0.75,0.96c0.17,0.4,0.23,0.81,0.17,1.21c-0.06,0.41-0.22,0.77-0.48,1.1c-0.26,0.33-0.61,0.58-1.03,0.76
			C35.08,15.99,34.66,16.06,34.24,16.02z M35.75,14.55c0.15-0.19,0.24-0.41,0.26-0.66s-0.01-0.5-0.12-0.75
			c-0.11-0.25-0.26-0.46-0.46-0.61s-0.42-0.24-0.66-0.27c-0.24-0.03-0.48,0.01-0.73,0.11c-0.24,0.1-0.44,0.25-0.59,0.45
			c-0.15,0.19-0.24,0.41-0.26,0.66c-0.03,0.25,0.01,0.5,0.12,0.75c0.11,0.25,0.26,0.46,0.46,0.61s0.42,0.24,0.66,0.27
			c0.24,0.03,0.48-0.01,0.73-0.11C35.41,14.9,35.6,14.75,35.75,14.55z"/>
		<path d="M42.46,12.29c-0.18-0.12-0.29-0.31-0.34-0.55c-0.04-0.25,0-0.46,0.12-0.63c0.12-0.17,0.31-0.28,0.56-0.33
			c0.25-0.04,0.46-0.01,0.64,0.11c0.18,0.12,0.29,0.3,0.34,0.55c0.04,0.25,0,0.46-0.12,0.64c-0.12,0.18-0.31,0.29-0.56,0.33
			C42.86,12.45,42.64,12.41,42.46,12.29z"/>
		<path d="M49.75,12.31c-0.32-0.35-0.47-0.84-0.45-1.48l0.08-2.53l0.64,0.02l-0.08,2.51c-0.03,0.95,0.38,1.44,1.21,1.47
			c0.41,0.01,0.72-0.1,0.95-0.33c0.22-0.23,0.34-0.59,0.36-1.07l0.08-2.51l0.62,0.02l-0.08,2.53c-0.02,0.64-0.2,1.12-0.54,1.45
			c-0.34,0.33-0.81,0.48-1.4,0.46C50.53,12.84,50.07,12.66,49.75,12.31z"/>
		<path d="M58.21,13.68l-0.98-2.06l-1.63,1.57l-0.72-0.14l2.07-1.94L55.8,8.69l0.71,0.13l0.91,1.91l1.53-1.46l0.68,0.13l-1.94,1.83
			l1.23,2.58L58.21,13.68z"/>
		<path d="M63.82,9.72l0.53,0.17l-3.83,5.07l-0.53-0.17L63.82,9.72z"/>
		<path d="M64.91,15.37c-0.15-0.45-0.09-0.96,0.18-1.54l1.09-2.29l0.58,0.27l-1.08,2.27c-0.41,0.86-0.24,1.47,0.52,1.83
			c0.37,0.17,0.7,0.2,1,0.08c0.3-0.12,0.55-0.4,0.76-0.84l1.07-2.27l0.56,0.26l-1.09,2.29c-0.27,0.58-0.63,0.95-1.08,1.11
			c-0.44,0.16-0.93,0.12-1.47-0.14C65.41,16.17,65.07,15.82,64.91,15.37z"/>
		<path d="M72.31,14.79l0.54,0.35l-2.42,3.75l-0.54-0.35L72.31,14.79z"/>
		<path d="M77.99,19.09l1.35,1.31c0.34,0.33,0.57,0.69,0.71,1.07s0.15,0.77,0.06,1.16s-0.29,0.73-0.59,1.04
			c-0.3,0.32-0.65,0.52-1.03,0.62c-0.38,0.1-0.77,0.09-1.16-0.03c-0.39-0.12-0.76-0.34-1.1-0.67l-1.35-1.31L77.99,19.09z
			 M76.59,23.17c0.26,0.25,0.54,0.42,0.83,0.51c0.29,0.09,0.58,0.1,0.87,0.02c0.28-0.08,0.54-0.24,0.77-0.47
			c0.23-0.24,0.38-0.5,0.45-0.78c0.07-0.29,0.05-0.57-0.05-0.86c-0.1-0.29-0.28-0.56-0.54-0.81l-0.86-0.84l-2.33,2.41L76.59,23.17z"
			/>
		<path d="M81.69,29.33l-0.45,0.32l-1.9-2.62l3.61-2.61l1.84,2.55l-0.45,0.33l-1.47-2.03l-1.11,0.8l1.31,1.81l-0.44,0.32l-1.31-1.81
			l-1.17,0.84L81.69,29.33z"/>
		<path d="M82.66,31.87c-0.05-0.33-0.05-0.6,0.02-0.84l0.55-0.02c-0.06,0.22-0.07,0.47-0.03,0.75c0.04,0.28,0.12,0.54,0.25,0.79
			c0.17,0.33,0.35,0.54,0.55,0.65s0.39,0.11,0.57,0.01c0.14-0.07,0.22-0.17,0.26-0.31c0.04-0.13,0.05-0.28,0.02-0.43
			c-0.02-0.15-0.07-0.36-0.14-0.63c-0.08-0.33-0.14-0.61-0.16-0.83c-0.02-0.22,0-0.43,0.09-0.64s0.25-0.38,0.5-0.51
			c0.21-0.11,0.43-0.15,0.66-0.13c0.23,0.02,0.45,0.12,0.67,0.29c0.22,0.17,0.42,0.43,0.59,0.76c0.12,0.23,0.21,0.48,0.27,0.74
			c0.06,0.26,0.07,0.5,0.04,0.72l-0.55,0.05c0.02-0.22,0.01-0.44-0.04-0.66c-0.04-0.22-0.11-0.41-0.21-0.6
			c-0.17-0.32-0.35-0.53-0.55-0.63c-0.2-0.1-0.39-0.1-0.58,0c-0.14,0.07-0.22,0.17-0.26,0.31c-0.04,0.13-0.04,0.28-0.02,0.44
			c0.02,0.16,0.07,0.37,0.13,0.62c0.08,0.33,0.14,0.61,0.16,0.83c0.02,0.22,0,0.43-0.08,0.64s-0.24,0.37-0.49,0.5
			c-0.21,0.11-0.43,0.15-0.65,0.13c-0.23-0.02-0.46-0.12-0.68-0.3c-0.22-0.18-0.42-0.43-0.59-0.77
			C82.82,32.5,82.71,32.19,82.66,31.87z"/>
		<path d="M88.81,34.75l0.23,0.59l-4.16,1.6l-0.23-0.59L88.81,34.75z"/>
		<path d="M88.68,41.89l0.14,0.59l-1.69,0.41c-0.23-0.17-0.43-0.39-0.59-0.65c-0.16-0.26-0.28-0.55-0.36-0.86
			c-0.11-0.44-0.11-0.85,0-1.25c0.11-0.4,0.3-0.74,0.59-1.02s0.64-0.48,1.06-0.58c0.42-0.1,0.83-0.1,1.21,0.02s0.72,0.33,0.99,0.64
			c0.28,0.31,0.47,0.68,0.58,1.12c0.08,0.35,0.1,0.67,0.06,0.98c-0.04,0.31-0.15,0.59-0.32,0.84l-0.48-0.29
			c0.25-0.43,0.32-0.89,0.2-1.38c-0.08-0.33-0.22-0.61-0.43-0.84c-0.21-0.23-0.45-0.38-0.74-0.47c-0.29-0.09-0.59-0.09-0.91-0.01
			c-0.31,0.08-0.58,0.22-0.8,0.43c-0.22,0.21-0.37,0.46-0.45,0.76c-0.08,0.3-0.08,0.61,0,0.93c0.09,0.39,0.27,0.7,0.53,0.95
			L88.68,41.89z"/>
		<path d="M91.73,48.94l-4.45,0.32l-0.04-0.52l3.12-2.9l-3.32,0.24l-0.05-0.64l4.45-0.32l0.04,0.52l-3.12,2.91l3.31-0.24
			L91.73,48.94z"/>
		<path d="M87.49,55.13l-0.55-0.05l0.28-3.22l4.44,0.39l-0.28,3.13l-0.55-0.05l0.22-2.5l-1.36-0.12l-0.2,2.23l-0.54-0.05l0.2-2.23
			l-1.43-0.13L87.49,55.13z"/>
		<path d="M85.85,60.21l1.56-0.61c0.02-0.12,0.04-0.21,0.05-0.28l0.26-1.07l-1.32-0.32l0.15-0.62l4.33,1.06l-0.41,1.69
			c-0.14,0.56-0.38,0.97-0.73,1.22c-0.35,0.26-0.75,0.33-1.22,0.21c-0.33-0.08-0.6-0.23-0.79-0.46c-0.19-0.22-0.31-0.5-0.34-0.83
			l-1.71,0.67L85.85,60.21z M88.03,60.4c0.12,0.25,0.33,0.41,0.65,0.49c0.31,0.08,0.58,0.03,0.8-0.13c0.22-0.17,0.38-0.44,0.47-0.83
			l0.26-1.05l-1.95-0.48L88,59.44C87.9,59.83,87.91,60.15,88.03,60.4z"/>
		<path d="M82.24,68.63l0.8-0.25c-0.16-0.53-0.1-1.06,0.17-1.59c0.14-0.26,0.3-0.48,0.5-0.65c0.2-0.17,0.4-0.27,0.62-0.31
			c0.22-0.04,0.43,0,0.63,0.1c0.24,0.12,0.42,0.31,0.53,0.56c0.11,0.25,0.17,0.59,0.19,1.03c0.26-0.08,0.48-0.13,0.66-0.12
			c0.18,0,0.34,0.04,0.49,0.12c0.27,0.14,0.43,0.35,0.5,0.62s0.01,0.58-0.16,0.9c-0.16,0.3-0.35,0.5-0.59,0.6
			c-0.24,0.1-0.49,0.09-0.74-0.05c-0.2-0.1-0.35-0.26-0.44-0.47c-0.09-0.21-0.15-0.51-0.16-0.91l-1.48,0.48
			c0.16,0.22,0.35,0.43,0.59,0.61l-0.37,0.36c-0.31-0.25-0.55-0.52-0.73-0.81l-0.81,0.26L82.24,68.63z M83.52,68.22l1.7-0.55
			c-0.01-0.35-0.05-0.61-0.13-0.79c-0.07-0.17-0.19-0.3-0.36-0.39c-0.19-0.1-0.38-0.09-0.58,0.01c-0.2,0.1-0.37,0.29-0.51,0.55
			C83.44,67.45,83.4,67.83,83.52,68.22z M86.85,68.36c-0.04-0.15-0.13-0.26-0.27-0.33c-0.1-0.05-0.21-0.08-0.34-0.07
			c-0.12,0.01-0.31,0.05-0.55,0.12c0.01,0.34,0.05,0.58,0.1,0.74c0.05,0.15,0.14,0.26,0.27,0.33c0.13,0.07,0.26,0.08,0.39,0.02
			c0.13-0.05,0.23-0.16,0.32-0.33C86.86,68.66,86.89,68.5,86.85,68.36z"/>
		<path d="M76.54,76.21l2.42,2.17l-0.94-3.01l0.2-0.22l3.08,0.6l-2.4-2.16l0.41-0.46l3.31,2.98l-0.35,0.39l-3.57-0.71l1.1,3.46
			l-0.35,0.39l-3.32-2.98L76.54,76.21z"/>
		<path d="M74.29,80.82l0.13-1.15l-0.71-0.91l0.5-0.39l2.75,3.51l-0.5,0.39l-1.54-1.96l-0.37,3.45l-0.57,0.45l0.26-2.75l-3.11-0.68
			l0.59-0.46L74.29,80.82z"/>
		<path d="M70.91,85.47l1.32-0.77l0.28,0.48l-3.19,1.85l-0.28-0.48l1.32-0.77l-1.96-3.38l0.54-0.32L70.91,85.47z"/>
		<path d="M62.22,85.33c0.33,0.01,0.6,0.06,0.82,0.16l-0.08,0.54c-0.21-0.09-0.45-0.15-0.73-0.16c-0.28-0.01-0.56,0.02-0.82,0.11
			c-0.35,0.11-0.6,0.25-0.73,0.43c-0.14,0.17-0.17,0.36-0.11,0.56c0.05,0.15,0.13,0.25,0.26,0.31c0.12,0.06,0.26,0.09,0.42,0.1
			c0.16,0,0.37,0,0.64-0.02c0.34-0.02,0.63-0.03,0.85-0.01c0.22,0.01,0.43,0.08,0.62,0.2c0.19,0.12,0.33,0.31,0.41,0.58
			c0.07,0.23,0.08,0.45,0.01,0.67c-0.06,0.22-0.2,0.42-0.41,0.61c-0.21,0.19-0.49,0.34-0.85,0.45c-0.25,0.08-0.51,0.12-0.77,0.14
			c-0.26,0.01-0.5-0.02-0.71-0.08l0.05-0.55c0.21,0.06,0.43,0.08,0.65,0.08c0.22,0,0.43-0.04,0.62-0.1
			c0.34-0.11,0.58-0.25,0.71-0.43s0.17-0.37,0.1-0.57c-0.05-0.15-0.13-0.25-0.26-0.31c-0.13-0.06-0.27-0.09-0.43-0.1
			c-0.16-0.01-0.37,0-0.64,0.02c-0.34,0.02-0.62,0.03-0.84,0.01c-0.22-0.02-0.42-0.08-0.61-0.19c-0.19-0.11-0.33-0.3-0.41-0.57
			c-0.07-0.22-0.07-0.45-0.01-0.67c0.06-0.22,0.2-0.43,0.42-0.61s0.5-0.33,0.86-0.45C61.57,85.37,61.9,85.33,62.22,85.33z"/>
		<path d="M55.03,91.02c-0.37-0.22-0.59-0.57-0.67-1.05c-0.08-0.48,0.03-0.88,0.31-1.2c0.28-0.32,0.71-0.53,1.28-0.62l1.09-0.17
			l-0.21-1.33l0.63-0.1l0.7,4.4l-1.72,0.27C55.87,91.31,55.4,91.24,55.03,91.02z M55.19,89.09c-0.18,0.2-0.25,0.46-0.2,0.78
			c0.05,0.32,0.19,0.55,0.43,0.68c0.24,0.14,0.55,0.17,0.95,0.11l1.07-0.17l-0.31-1.98l-1.07,0.17
			C55.67,88.76,55.37,88.89,55.19,89.09z"/>
		<path d="M48.5,87.82l0-0.55l3.23-0.02l0.03,4.46l-3.15,0.02l0-0.55l2.51-0.02l-0.01-1.37l-2.24,0.02l0-0.54l2.24-0.01l-0.01-1.44
			L48.5,87.82z"/>
		<path d="M45.41,87.23c0.33,0.25,0.56,0.56,0.72,0.93c0.15,0.37,0.2,0.77,0.13,1.2s-0.22,0.8-0.47,1.11
			c-0.25,0.31-0.57,0.54-0.96,0.68c-0.38,0.14-0.8,0.18-1.24,0.12c-0.34-0.05-0.65-0.15-0.92-0.31c-0.27-0.16-0.49-0.36-0.66-0.62
			l0.47-0.34c0.28,0.4,0.67,0.63,1.17,0.7c0.33,0.05,0.63,0.02,0.92-0.09c0.29-0.11,0.52-0.28,0.71-0.52
			c0.19-0.24,0.3-0.51,0.35-0.83c0.05-0.32,0.01-0.62-0.1-0.9c-0.11-0.28-0.29-0.51-0.53-0.7c-0.24-0.19-0.53-0.3-0.86-0.35
			c-0.49-0.07-0.93,0.05-1.32,0.35l-0.35-0.46c0.24-0.2,0.5-0.33,0.81-0.41c0.3-0.08,0.63-0.09,0.97-0.04
			C44.7,86.83,45.09,86.98,45.41,87.23z"/>
		<path d="M39.3,90.32l-0.61-0.17l1.17-4.3l0.61,0.17L39.3,90.32z"/>
		<path d="M34.3,85.04l2.19,0.9l0.88-0.84l0.61,0.25l-3.56,3.35l-0.58-0.24l-0.18-4.89l0.62,0.25L34.3,85.04z M34.32,85.59
			l0.06,2.39l1.72-1.65L34.32,85.59z"/>
		<path d="M29.68,86.45l-0.55-0.33l2-3.35l-2.07-1.24l0.28-0.48l2.62,1.57L29.68,86.45z"/>
		<path d="M25.03,83.41l-0.51-0.39l2.7-3.55l0.51,0.39L25.03,83.41z"/>
		<path d="M24.88,77.66c0.15,0.29,0.24,0.56,0.25,0.8l-0.51,0.2c-0.02-0.23-0.09-0.47-0.21-0.72c-0.13-0.25-0.29-0.48-0.49-0.67
			c-0.27-0.26-0.51-0.4-0.73-0.44c-0.22-0.04-0.4,0.02-0.54,0.17c-0.11,0.11-0.16,0.23-0.15,0.37c0.01,0.14,0.04,0.28,0.11,0.41
			c0.07,0.14,0.18,0.32,0.33,0.55c0.19,0.29,0.33,0.54,0.42,0.74c0.09,0.2,0.13,0.41,0.12,0.63c-0.01,0.22-0.11,0.44-0.31,0.64
			c-0.17,0.17-0.36,0.28-0.58,0.33c-0.22,0.05-0.47,0.03-0.73-0.06s-0.53-0.27-0.8-0.53c-0.19-0.18-0.35-0.39-0.49-0.61
			c-0.14-0.23-0.23-0.45-0.27-0.67l0.5-0.22c0.05,0.22,0.13,0.42,0.25,0.61c0.11,0.19,0.24,0.36,0.39,0.5
			c0.26,0.25,0.5,0.39,0.72,0.42c0.22,0.03,0.4-0.03,0.55-0.18c0.11-0.11,0.16-0.23,0.15-0.37s-0.05-0.28-0.12-0.42
			c-0.07-0.14-0.18-0.32-0.33-0.55c-0.19-0.29-0.33-0.54-0.42-0.73c-0.09-0.2-0.13-0.41-0.12-0.63c0.01-0.22,0.11-0.43,0.3-0.63
			c0.16-0.17,0.36-0.28,0.58-0.33c0.23-0.05,0.47-0.03,0.74,0.07c0.26,0.1,0.53,0.28,0.81,0.54C24.53,77.1,24.72,77.36,24.88,77.66z
			"/>
		<path d="M17.99,75.86l0.95,1.2l-0.43,0.34l-2.3-2.88l0.43-0.34l0.95,1.2l3.05-2.43l0.39,0.49L17.99,75.86z"/>
	</g>
	<path d="M51.54,71.08c-1.02-0.37-1.76-1.06-1.7-2.39c0.07-1.34,1.15-10.02,2.25-16.68c1.1-6.65,2.96-16.59,2.62-19.58
		c-0.27-2.42-0.06-3.2-5.01-0.99c-4.95,2.21-6.07,3.66-9.87,6.98c-3.8,3.32-6.02,5.96-8.41,10.65c-2.39,4.69-2.06,6.93-0.8,8.6
		c1.26,1.68,5.07,2.3,9.07,1.1c3.52-1.05,4.01-1.58,4.96-2.17c1.05-0.65,1.61-1.28,2-0.79c0.4,0.48,0.33,0.8-0.75,1.66
		c-1.08,0.86-2.74,2.42-8.57,3.32c-5.83,0.91-9.08-0.4-10.34-1.44c-1.26-1.04-1.79-3.54-0.65-6.78c1.14-3.24,2.33-6.65,9.36-13.47
		c7.74-7.52,13.7-9.86,17.01-10.35c3.32-0.49,5.33,1.23,5.48,3.36c0.15,2.13,0.06,5.87-0.9,11.37c-1.03,5.91-2.4,15.69-2.68,18.15
		c-0.29,2.46-0.42,4.16-0.42,4.16S57,63.15,60.3,55.24c3.3-7.91,3.94-11.52,4.08-13.08c0.1-1.09-0.14-1.5-0.14-1.5
		s1.55-0.73,2.34-0.34c0.79,0.39,2.59,1.9,2.18,4.31c-0.41,2.42-1.67,6.93-4.94,13.38c-2.53,5-7.57,10.77-8.19,11.58
		c-0.62,0.81-1.44,1.88-2.44,1.8C52.2,71.31,51.54,71.08,51.54,71.08z"/>
</g>
</svg>
